<svg version="1.2" xmlns="http://www.w3.org/2000/svg" viewBox="0 0 500 500" width="500" height="500">
	<title>4530762-ai</title>
	<style>
		.s0 { fill: #e0e0e0 } 
		.s1 { fill: #ebebeb } 
		.s2 { fill: #f5f5f5 } 
		.s3 { fill: #ffffff } 
		.s4 { fill: #455a64 } 
		.s5 { fill: #fafafa } 
		.s6 { fill: none;stroke: #ffffff } 
		.s7 { fill: #263238 } 
	</style>
	<g id="Background Complete">
		<g id="&lt;Group&gt;">
			<g id="&lt;Group&gt;">
				<g id="&lt;Group&gt;">
					<g id="&lt;Group&gt;">
						<g id="&lt;Group&gt;">
							<g id="&lt;Group&gt;">
								<path id="&lt;Path&gt;" class="s0" d="m413 371.6c-0.1 0.2-1-0.4-2-1.2-1-0.8-1.7-1.5-1.6-1.7 0.1-0.1 1 0.4 2 1.2 1 0.8 1.7 1.6 1.6 1.7z"/>
							</g>
						</g>
					</g>
				</g>
				<g id="&lt;Group&gt;">
					<g id="&lt;Group&gt;">
						<g id="&lt;Group&gt;">
							<g id="&lt;Group&gt;">
								<path id="&lt;Path&gt;" class="s1" d="m428.7 421.3l-17.3-2.4c-1.3-29.7 0.5-59.6 5.3-89 0.7-4.3 1.5-8.7 3.9-12.3 2.3-3.6 6.7-6.3 10.9-5.4 3.7 0.8 6.5 4.1 7.7 7.7 1.2 3.6 1.1 7.4 0.9 11.2-1.4 32-3.8 59.2-11.4 90.2z"/>
							</g>
						</g>
					</g>
					<g id="&lt;Group&gt;">
						<g id="&lt;Group&gt;">
							<g id="&lt;Group&gt;">
								<g id="&lt;Group&gt;">
									<path id="&lt;Path&gt;" class="s0" d="m429.1 312.1q0 0-0.1 0.3-0.1 0.3-0.3 0.7-0.4 1.1-1.1 3c-0.3 0.7-0.6 1.4-0.8 2.2q-0.4 1.2-0.9 2.6-0.4 1.4-0.9 3-0.5 1.7-0.9 3.5c-1.3 4.8-2.4 10.6-3.4 17.1-0.9 6.5-1.5 13.7-2 21.3-0.9 15.2-1 29-1.4 38.9-0.2 5-0.4 9-0.6 11.8q-0.1 2-0.2 3.2 0 0.5-0.1 0.8 0 0.3 0 0.3 0 0 0-0.3 0-0.3 0-0.8 0-1.2 0.1-3.2c0.1-2.8 0.2-6.8 0.3-11.8 0.3-10 0.4-23.7 1.3-38.9 0.4-7.6 1.1-14.9 2-21.4 1-6.5 2.2-12.3 3.5-17.2q0.5-1.8 1-3.4 0.5-1.6 1-3 0.5-1.4 0.9-2.6c0.3-0.8 0.6-1.5 0.9-2.2q0.8-1.8 1.2-2.9 0.2-0.5 0.4-0.8 0.1-0.2 0.1-0.2z"/>
								</g>
							</g>
						</g>
					</g>
					<g id="&lt;Group&gt;">
						<g id="&lt;Group&gt;">
							<g id="&lt;Group&gt;">
								<g id="&lt;Group&gt;">
									<path id="&lt;Path&gt;" class="s0" d="m430.7 312.1q1.1 1.1 2.1 3.6c1.1 2.4 1.8 6.4 1.6 11.2-0.5 9.5-1.3 22.7-2.5 37.3-1.1 14.5-2.4 27.7-3.4 37.2-0.5 4.8-0.9 8.6-1.3 11.3q-0.2 1.9-0.4 3 0 0.5-0.1 0.8 0 0.3 0 0.3-0.1 0 0-0.3 0-0.3 0-0.8 0.1-1.1 0.3-3c0.3-2.8 0.6-6.6 1.1-11.3 0.9-9.5 2.1-22.7 3.2-37.3 1.2-14.5 2.1-27.7 2.7-37.2 0.2-4.8-0.4-8.7-1.4-11.1-1-2.5-2-3.7-1.9-3.7z"/>
								</g>
							</g>
						</g>
					</g>
					<g id="&lt;Group&gt;">
						<g id="&lt;Group&gt;">
							<g id="&lt;Group&gt;">
								<g id="&lt;Group&gt;">
									<path id="&lt;Path&gt;" class="s0" d="m442.7 356.9c0 0.2-1.5-0.2-3.3-0.8-1.7-0.7-3.1-1.3-3-1.5 0-0.1 1.5 0.2 3.2 0.9 1.8 0.6 3.2 1.2 3.1 1.4z"/>
								</g>
							</g>
						</g>
					</g>
					<g id="&lt;Group&gt;">
						<g id="&lt;Group&gt;">
							<g id="&lt;Group&gt;">
								<g id="&lt;Group&gt;">
									<path id="&lt;Path&gt;" class="s0" d="m444.8 339.3c0.1 0.1-1.3 0.9-3.1 1.7-1.8 0.8-3.3 1.3-3.4 1.2-0.1-0.2 1.3-1 3.1-1.8 1.8-0.8 3.3-1.3 3.4-1.1z"/>
								</g>
							</g>
						</g>
					</g>
					<g id="&lt;Group&gt;">
						<g id="&lt;Group&gt;">
							<g id="&lt;Group&gt;">
								<g id="&lt;Group&gt;">
									<path id="&lt;Path&gt;" class="s0" d="m443.7 324.9c0 0.1-1.1 0.2-2.6 0.1-1.4-0.1-2.5-0.3-2.5-0.5 0-0.2 1.2-0.2 2.6-0.1 1.4 0.1 2.5 0.3 2.5 0.5z"/>
								</g>
							</g>
						</g>
					</g>
					<g id="&lt;Group&gt;">
						<g id="&lt;Group&gt;">
							<g id="&lt;Group&gt;">
								<g id="&lt;Group&gt;">
									<path id="&lt;Path&gt;" class="s0" d="m425.8 315.6c-0.1 0.1-0.9-0.8-1.6-2.1-0.8-1.2-1.4-2.3-1.2-2.4 0.1-0.1 0.9 0.8 1.7 2.1 0.8 1.2 1.3 2.3 1.1 2.4z"/>
								</g>
							</g>
						</g>
					</g>
					<g id="&lt;Group&gt;">
						<g id="&lt;Group&gt;">
							<g id="&lt;Group&gt;">
								<g id="&lt;Group&gt;">
									<path id="&lt;Path&gt;" class="s0" d="m419.9 324.3c0 0.2-1.1 0.3-2.4 0.3-1.4 0-2.5-0.2-2.5-0.4 0-0.1 1.1-0.3 2.5-0.2 1.4 0 2.4 0.2 2.4 0.3z"/>
								</g>
							</g>
						</g>
					</g>
					<g id="&lt;Group&gt;">
						<g id="&lt;Group&gt;">
							<g id="&lt;Group&gt;">
								<g id="&lt;Group&gt;">
									<path id="&lt;Path&gt;" class="s0" d="m415.7 341.8c-0.1 0.1-1.2-0.2-2.6-0.8-1.4-0.5-2.4-1.1-2.3-1.2 0-0.2 1.2 0.1 2.5 0.7 1.4 0.5 2.5 1.1 2.4 1.3z"/>
								</g>
							</g>
						</g>
					</g>
					<g id="&lt;Group&gt;">
						<g id="&lt;Group&gt;">
							<g id="&lt;Group&gt;">
								<g id="&lt;Group&gt;">
									<path id="&lt;Path&gt;" class="s0" d="m415.2 356.4c0.1 0.2-0.9 0.5-2.2 0.8-1.2 0.3-2.2 0.3-2.3 0.2 0-0.2 1-0.5 2.2-0.8 1.3-0.3 2.3-0.4 2.3-0.2z"/>
								</g>
							</g>
						</g>
					</g>
					<g id="&lt;Group&gt;">
						<g id="&lt;Group&gt;">
							<g id="&lt;Group&gt;">
								<g id="&lt;Group&gt;">
									<path id="&lt;Path&gt;" class="s0" d="m413.3 380.4c0 0.2-1.1 0.5-2.4 0.7-1.3 0.3-2.4 0.3-2.4 0.2-0.1-0.2 1-0.5 2.3-0.8 1.3-0.2 2.4-0.3 2.5-0.1z"/>
								</g>
							</g>
						</g>
					</g>
					<g id="&lt;Group&gt;">
						<g id="&lt;Group&gt;">
							<g id="&lt;Group&gt;">
								<g id="&lt;Group&gt;">
									<path id="&lt;Path&gt;" class="s0" d="m411.9 393.6c0.1 0.2-0.8 0.8-1.9 1.4-1.2 0.6-2.2 1-2.3 0.8 0-0.1 0.8-0.7 2-1.3 1.1-0.7 2.1-1 2.2-0.9z"/>
								</g>
							</g>
						</g>
					</g>
					<g id="&lt;Group&gt;">
						<g id="&lt;Group&gt;">
							<g id="&lt;Group&gt;">
								<g id="&lt;Group&gt;">
									<path id="&lt;Path&gt;" class="s0" d="m422.7 408.6c-0.1 0.1-0.9-0.9-1.7-2.3-0.8-1.4-1.3-2.6-1.1-2.7 0.1 0 0.9 1 1.7 2.4 0.8 1.4 1.3 2.6 1.1 2.6z"/>
								</g>
							</g>
						</g>
					</g>
					<g id="&lt;Group&gt;">
						<g id="&lt;Group&gt;">
							<g id="&lt;Group&gt;">
								<g id="&lt;Group&gt;">
									<path id="&lt;Path&gt;" class="s0" d="m425.9 383.7c0.1 0.1-0.8 1.1-1.9 2.3-1.2 1.1-2.2 1.9-2.4 1.8-0.1-0.1 0.8-1.1 1.9-2.3 1.2-1.1 2.2-1.9 2.4-1.8z"/>
								</g>
							</g>
						</g>
					</g>
					<g id="&lt;Group&gt;">
						<g id="&lt;Group&gt;">
							<g id="&lt;Group&gt;">
								<g id="&lt;Group&gt;">
									<path id="&lt;Path&gt;" class="s0" d="m425.2 370.6c-0.2 0.1-0.9-0.5-1.8-1.5-0.8-0.9-1.4-1.7-1.3-1.8 0.1-0.1 0.9 0.5 1.8 1.4 0.8 0.9 1.4 1.8 1.3 1.9z"/>
								</g>
							</g>
						</g>
					</g>
					<g id="&lt;Group&gt;">
						<g id="&lt;Group&gt;">
							<g id="&lt;Group&gt;">
								<g id="&lt;Group&gt;">
									<path id="&lt;Path&gt;" class="s0" d="m427.3 353.9c0.1 0.1-0.6 1.1-1.6 2.2-1 1.1-1.9 1.9-2 1.8-0.1-0.1 0.6-1.1 1.6-2.2 1-1.2 1.9-2 2-1.8z"/>
								</g>
							</g>
						</g>
					</g>
					<g id="&lt;Group&gt;">
						<g id="&lt;Group&gt;">
							<g id="&lt;Group&gt;">
								<g id="&lt;Group&gt;">
									<path id="&lt;Path&gt;" class="s0" d="m428.5 341.7c-0.1 0.1-1.1-0.6-2.2-1.7-1.1-1.1-1.9-2.1-1.8-2.2 0.2-0.1 1.1 0.7 2.2 1.7 1.1 1.1 1.9 2.1 1.8 2.2z"/>
								</g>
							</g>
						</g>
					</g>
					<g id="&lt;Group&gt;">
						<g id="&lt;Group&gt;">
							<g id="&lt;Group&gt;">
								<g id="&lt;Group&gt;">
									<path id="&lt;Path&gt;" class="s0" d="m430.9 325.3c0.1 0.1-0.4 1.2-1.1 2.4-0.8 1.3-1.5 2.3-1.7 2.2-0.1-0.1 0.4-1.2 1.1-2.5 0.8-1.2 1.5-2.2 1.7-2.1z"/>
								</g>
							</g>
						</g>
					</g>
					<g id="&lt;Group&gt;">
						<g id="&lt;Group&gt;">
							<g id="&lt;Group&gt;">
								<g id="&lt;Group&gt;">
									<path id="&lt;Path&gt;" class="s0" d="m435.3 310.1c0.2 0.1-0.2 1.2-0.9 2.4-0.7 1.3-1.4 2.3-1.6 2.2-0.1-0.1 0.3-1.2 1-2.5 0.7-1.2 1.4-2.2 1.5-2.1z"/>
								</g>
							</g>
						</g>
					</g>
					<g id="&lt;Group&gt;">
						<g id="&lt;Group&gt;">
							<g id="&lt;Group&gt;">
								<g id="&lt;Group&gt;">
									<path id="&lt;Path&gt;" class="s0" d="m440.4 317c0.1 0.1-0.6 0.6-1.5 1.1-1 0.4-1.8 0.6-1.9 0.5 0-0.2 0.7-0.6 1.6-1.1 0.9-0.4 1.7-0.7 1.8-0.5z"/>
								</g>
							</g>
						</g>
					</g>
					<g id="&lt;Group&gt;">
						<g id="&lt;Group&gt;">
							<g id="&lt;Group&gt;">
								<g id="&lt;Group&gt;">
									<path id="&lt;Path&gt;" class="s0" d="m440.5 371.6c0 0.2-1.6 0-3.4-0.8-1.7-0.8-3-1.7-2.9-1.9 0.1-0.1 1.5 0.6 3.2 1.3 1.7 0.8 3.2 1.3 3.1 1.4z"/>
								</g>
							</g>
						</g>
					</g>
					<g id="&lt;Group&gt;">
						<g id="&lt;Group&gt;">
							<g id="&lt;Group&gt;">
								<g id="&lt;Group&gt;">
									<path id="&lt;Path&gt;" class="s0" d="m438.5 383.2c0 0.2-1.1 0.5-2.4 0.8-1.3 0.2-2.4 0.3-2.4 0.1 0-0.1 1-0.5 2.3-0.7 1.3-0.3 2.4-0.4 2.5-0.2z"/>
								</g>
							</g>
						</g>
					</g>
					<g id="&lt;Group&gt;">
						<g id="&lt;Group&gt;">
							<g id="&lt;Group&gt;">
								<g id="&lt;Group&gt;">
									<path id="&lt;Path&gt;" class="s0" d="m435.9 403c-0.1 0.2-1.4-0.7-2.6-2.3-1.2-1.5-1.8-3-1.7-3.1 0.2 0 1 1.3 2.2 2.7 1.1 1.5 2.2 2.6 2.1 2.7z"/>
								</g>
							</g>
						</g>
					</g>
					<g id="&lt;Group&gt;">
						<g id="&lt;Group&gt;">
							<g id="&lt;Group&gt;">
								<g id="&lt;Group&gt;">
									<path id="&lt;Path&gt;" class="s0" d="m408.1 412.1c-0.1-0.1 0.6-0.9 1.6-1.7 0.9-0.9 1.8-1.4 1.9-1.3 0.1 0.1-0.6 0.9-1.5 1.7-1 0.9-1.9 1.4-2 1.3z"/>
								</g>
							</g>
						</g>
					</g>
				</g>
			</g>
			<g id="&lt;Group&gt;">
				<g id="&lt;Group&gt;">
					<g id="&lt;Group&gt;">
						<path id="&lt;Path&gt;" class="s1" d="m408 417.1h-13.5c-5-15.1-7.5-31.6-8-46.1 0-2.2 0.4-4.5 1.4-6.4 1.1-1.9 3-3.5 5.2-3.5 3.7 0.1 5.9 4.2 7 7.7 5.1 16 7.7 31.6 7.9 48.3z"/>
					</g>
				</g>
			</g>
			<g id="&lt;Group&gt;">
				<g id="&lt;Group&gt;">
					<g id="&lt;Group&gt;">
						<path id="&lt;Path&gt;" class="s1" d="m390.2 419.2q-8.4 0.9-16.8 1.9-8.9-27.9-17.8-55.7c-1.9-5.8-3.8-11.8-3.1-17.8 0.8-6 3.1-11.9 9-13 6.6 0.4 12.2 4.5 14.1 12.1 6.2 24.6 9.2 47.7 14.6 72.5z"/>
					</g>
				</g>
			</g>
			<g id="&lt;Group&gt;">
				<g id="&lt;Group&gt;">
					<g id="&lt;Group&gt;">
						<g id="&lt;Group&gt;">
							<path id="&lt;Path&gt;" class="s0" d="m393.1 361.1c0.1 0.1-0.5 0.6-1.1 1.9-0.6 1.4-0.9 3.5-0.6 6 0.2 2.6 0.5 5.7 0.9 9.1 0.5 3.4 1.1 7.1 1.9 11 1.5 7.8 3.2 14.7 4.3 19.8 0.6 2.5 1 4.6 1.2 6q0.2 1 0.3 1.7 0.1 0.6 0.1 0.6-0.1 0-0.2-0.6-0.2-0.7-0.4-1.6c-0.4-1.5-0.8-3.5-1.4-6-1.2-5.1-3-12-4.5-19.8-0.8-3.9-1.4-7.6-1.8-11-0.2-1.8-0.4-3.4-0.5-4.9-0.1-1.5-0.3-2.9-0.4-4.2-0.2-2.7 0.2-4.8 0.9-6.2q0.7-1.3 1.3-1.8z"/>
						</g>
					</g>
				</g>
			</g>
			<g id="&lt;Group&gt;">
				<g id="&lt;Group&gt;">
					<g id="&lt;Group&gt;">
						<g id="&lt;Group&gt;">
							<path id="&lt;Path&gt;" class="s0" d="m361.8 334.2c0 0-0.9 0.8-2 2.7-1.2 1.8-2.4 4.9-2.6 8.8-0.3 3.9 0.6 8.5 2.1 13.5 1.5 5 3.1 10.5 4.8 16.3 3.3 11.5 6.4 22 8.6 29.6 1 3.7 1.9 6.8 2.5 9q0.4 1.5 0.7 2.4 0.2 0.9 0.2 0.9-0.1 0-0.3-0.8-0.3-0.9-0.8-2.5c-0.7-2.1-1.6-5.2-2.7-8.9-2.3-7.6-5.4-18-8.8-29.5-1.7-5.8-3.3-11.3-4.8-16.3-1.4-5-2.3-9.8-1.9-13.7 0.2-4 1.5-7.1 2.8-8.9q1.2-1.9 2.2-2.6z"/>
						</g>
					</g>
				</g>
			</g>
			<g id="&lt;Group&gt;">
				<g id="&lt;Group&gt;">
					<g id="&lt;Group&gt;">
						<g id="&lt;Group&gt;">
							<path id="&lt;Path&gt;" class="s0" d="m386.5 417.4q0 0-0.4-0.8c-0.2-0.5-0.6-1.3-0.9-2.3-0.8-2.1-1.9-5.2-2.9-9-1.1-3.8-2.1-8.4-3.2-13.5-0.9-5.2-2-10.8-3.1-16.8-1.2-5.9-2.5-11.5-4-16.5-1.5-5-3.2-9.4-4.9-13-1.7-3.5-3.3-6.3-4.6-8.1-0.5-1-1.1-1.7-1.4-2.2q-0.5-0.7-0.4-0.7 0 0 0.5 0.7c0.4 0.4 0.9 1.1 1.5 2 1.3 1.8 3 4.6 4.8 8.1 1.7 3.6 3.5 8 5 13 1.6 5 2.9 10.7 4.1 16.6 1.1 5.9 2.1 11.6 3.1 16.7 1 5.2 2 9.8 3 13.6 1 3.8 2 6.9 2.7 9 0.3 1 0.7 1.8 0.8 2.4q0.3 0.8 0.3 0.8z"/>
						</g>
					</g>
				</g>
			</g>
			<g id="&lt;Group&gt;">
				<g id="&lt;Group&gt;">
					<g id="&lt;Group&gt;">
						<g id="&lt;Group&gt;">
							<path id="&lt;Path&gt;" class="s0" d="m355.9 362.6c0 0.2-0.9 0.5-2.1 0.8-1.2 0.3-2.1 0.4-2.2 0.2 0-0.1 0.9-0.5 2.1-0.8 1.1-0.3 2.1-0.4 2.2-0.2z"/>
						</g>
					</g>
				</g>
			</g>
			<g id="&lt;Group&gt;">
				<g id="&lt;Group&gt;">
					<g id="&lt;Group&gt;">
						<g id="&lt;Group&gt;">
							<path id="&lt;Path&gt;" class="s0" d="m354.1 351.1c0 0.2-1.3 0.3-2.9 0.3-1.5 0.1-2.8 0.1-2.8 0 0-0.2 1.2-0.5 2.8-0.6 1.6 0 2.9 0.2 2.9 0.3z"/>
						</g>
					</g>
				</g>
			</g>
			<g id="&lt;Group&gt;">
				<g id="&lt;Group&gt;">
					<g id="&lt;Group&gt;">
						<g id="&lt;Group&gt;">
							<path id="&lt;Path&gt;" class="s0" d="m356 340.6c-0.1 0.2-1.1-0.4-2.1-1.3-1-0.8-1.7-1.6-1.6-1.8 0.1-0.1 1 0.5 2 1.4 1 0.8 1.8 1.6 1.7 1.7z"/>
						</g>
					</g>
				</g>
			</g>
			<g id="&lt;Group&gt;">
				<g id="&lt;Group&gt;">
					<g id="&lt;Group&gt;">
						<g id="&lt;Group&gt;">
							<path id="&lt;Path&gt;" class="s0" d="m361.1 330.9c0.2 0.1 0.1 0.9 0.1 1.9 0 1 0 1.8-0.2 1.8-0.2 0.1-0.5-0.8-0.4-1.8 0-1.1 0.3-1.9 0.5-1.9z"/>
						</g>
					</g>
				</g>
			</g>
			<g id="&lt;Group&gt;">
				<g id="&lt;Group&gt;">
					<g id="&lt;Group&gt;">
						<g id="&lt;Group&gt;">
							<path id="&lt;Path&gt;" class="s0" d="m371.6 335.5c0.1 0.1-0.3 0.9-0.9 1.9-0.7 0.9-1.3 1.6-1.5 1.5-0.1-0.1 0.3-1 1-1.9 0.6-0.9 1.2-1.6 1.4-1.5z"/>
						</g>
					</g>
				</g>
			</g>
			<g id="&lt;Group&gt;">
				<g id="&lt;Group&gt;">
					<g id="&lt;Group&gt;">
						<g id="&lt;Group&gt;">
							<path id="&lt;Path&gt;" class="s0" d="m378.4 347.3c0.1 0.2-0.8 0.7-2 1.2-1.1 0.4-2.1 0.7-2.1 0.5-0.1-0.1 0.8-0.6 1.9-1.1 1.1-0.5 2.1-0.7 2.2-0.6z"/>
						</g>
					</g>
				</g>
			</g>
			<g id="&lt;Group&gt;">
				<g id="&lt;Group&gt;">
					<g id="&lt;Group&gt;">
						<g id="&lt;Group&gt;">
							<path id="&lt;Path&gt;" class="s0" d="m382.5 359.5c0.1 0.1-1.1 0.8-2.7 1.2-1.5 0.3-2.9 0.2-2.9 0.1 0-0.2 1.3-0.4 2.8-0.7 1.5-0.4 2.7-0.8 2.8-0.6z"/>
						</g>
					</g>
				</g>
			</g>
			<g id="&lt;Group&gt;">
				<g id="&lt;Group&gt;">
					<g id="&lt;Group&gt;">
						<g id="&lt;Group&gt;">
							<path id="&lt;Path&gt;" class="s0" d="m363.6 356c-0.2 0-0.1-0.8 0.2-1.8 0.3-1 0.7-1.8 0.9-1.7 0.1 0 0 0.9-0.3 1.9-0.3 0.9-0.7 1.7-0.8 1.6z"/>
						</g>
					</g>
				</g>
			</g>
			<g id="&lt;Group&gt;">
				<g id="&lt;Group&gt;">
					<g id="&lt;Group&gt;">
						<g id="&lt;Group&gt;">
							<path id="&lt;Path&gt;" class="s0" d="m366.2 371.3c-0.2-0.1 0.2-1.2 0.8-2.5 0.5-1.3 1.1-2.4 1.3-2.3 0.2 0.1-0.2 1.2-0.8 2.5-0.5 1.4-1.1 2.4-1.3 2.3z"/>
						</g>
					</g>
				</g>
			</g>
			<g id="&lt;Group&gt;">
				<g id="&lt;Group&gt;">
					<g id="&lt;Group&gt;">
						<g id="&lt;Group&gt;">
							<path id="&lt;Path&gt;" class="s0" d="m359.7 375.5c-0.1 0.2-1.2-0.1-2.4-0.5-1.3-0.4-2.4-0.8-2.3-1 0-0.1 1.1 0 2.4 0.4 1.4 0.4 2.3 0.9 2.3 1.1z"/>
						</g>
					</g>
				</g>
			</g>
			<g id="&lt;Group&gt;">
				<g id="&lt;Group&gt;">
					<g id="&lt;Group&gt;">
						<g id="&lt;Group&gt;">
							<path id="&lt;Path&gt;" class="s0" d="m363.4 387.9c0.1 0.2-0.6 0.9-1.6 1.6-1 0.7-1.8 1.1-1.9 1-0.1-0.1 0.6-0.8 1.6-1.5 1-0.7 1.8-1.2 1.9-1.1z"/>
						</g>
					</g>
				</g>
			</g>
			<g id="&lt;Group&gt;">
				<g id="&lt;Group&gt;">
					<g id="&lt;Group&gt;">
						<g id="&lt;Group&gt;">
							<path id="&lt;Path&gt;" class="s0" d="m366.5 400.4c0 0.1-0.9 0.5-2 0.8-1.2 0.2-2.1 0.3-2.2 0.2 0-0.2 0.9-0.6 2-0.8 1.2-0.3 2.1-0.4 2.2-0.2z"/>
						</g>
					</g>
				</g>
			</g>
			<g id="&lt;Group&gt;">
				<g id="&lt;Group&gt;">
					<g id="&lt;Group&gt;">
						<g id="&lt;Group&gt;">
							<path id="&lt;Path&gt;" class="s0" d="m382.8 369.9c0.1 0.1-0.6 0.7-1.7 1.1-1.1 0.5-2.1 0.5-2.1 0.3-0.1-0.1 0.8-0.4 1.8-0.8 1.1-0.4 2-0.8 2-0.6z"/>
						</g>
					</g>
				</g>
			</g>
			<g id="&lt;Group&gt;">
				<g id="&lt;Group&gt;">
					<g id="&lt;Group&gt;">
						<g id="&lt;Group&gt;">
							<path id="&lt;Path&gt;" class="s0" d="m385.2 389.2c-0.1 0.1-1-0.1-2-0.6-1.1-0.5-1.9-1-1.8-1.2 0.1-0.2 1 0.1 2 0.6 1.1 0.5 1.9 1 1.8 1.2z"/>
						</g>
					</g>
				</g>
			</g>
			<g id="&lt;Group&gt;">
				<g id="&lt;Group&gt;">
					<g id="&lt;Group&gt;">
						<g id="&lt;Group&gt;">
							<path id="&lt;Path&gt;" class="s0" d="m389.3 403c0 0.2-1.2-0.2-2.7-0.7-1.4-0.6-2.5-1.1-2.4-1.3 0.1-0.2 1.3 0.2 2.7 0.7 1.4 0.6 2.5 1.1 2.4 1.3z"/>
						</g>
					</g>
				</g>
			</g>
			<g id="&lt;Group&gt;">
				<g id="&lt;Group&gt;">
					<g id="&lt;Group&gt;">
						<g id="&lt;Group&gt;">
							<path id="&lt;Path&gt;" class="s0" d="m367.1 413.8c-0.1-0.1 1-0.9 2.3-1.9 1.3-1 2.3-1.9 2.4-1.8 0.1 0.2-0.7 1.3-2 2.3-1.3 1.1-2.6 1.6-2.7 1.4z"/>
						</g>
					</g>
				</g>
			</g>
			<g id="&lt;Group&gt;">
				<g id="&lt;Group&gt;">
					<g id="&lt;Group&gt;">
						<g id="&lt;Group&gt;">
							<path id="&lt;Path&gt;" class="s0" d="m378.1 406.8c-0.2 0-0.5-0.9-0.9-2-0.4-1.1-0.8-1.9-0.7-2 0.1-0.1 0.8 0.6 1.3 1.8 0.4 1.2 0.4 2.2 0.2 2.2z"/>
						</g>
					</g>
				</g>
			</g>
			<g id="&lt;Group&gt;">
				<g id="&lt;Group&gt;">
					<g id="&lt;Group&gt;">
						<g id="&lt;Group&gt;">
							<path id="&lt;Path&gt;" class="s0" d="m375.2 390.2c-0.1 0.1-0.9-0.2-1.6-0.8-0.8-0.5-1.3-1.1-1.2-1.2 0.1-0.2 0.8 0.2 1.5 0.7 0.8 0.6 1.4 1.1 1.3 1.3z"/>
						</g>
					</g>
				</g>
			</g>
			<g id="&lt;Group&gt;">
				<g id="&lt;Group&gt;">
					<g id="&lt;Group&gt;">
						<g id="&lt;Group&gt;">
							<path id="&lt;Path&gt;" class="s0" d="m400.6 364.1c0.1 0.2-0.6 0.9-1.5 1.6-1 0.7-1.8 1.1-1.9 1-0.1-0.2 0.6-0.8 1.5-1.5 1-0.7 1.8-1.2 1.9-1.1z"/>
						</g>
					</g>
				</g>
			</g>
			<g id="&lt;Group&gt;">
				<g id="&lt;Group&gt;">
					<g id="&lt;Group&gt;">
						<g id="&lt;Group&gt;">
							<ellipse id="&lt;Path&gt;" class="s0" cx="402.1" cy="374.5" rx="2.3" ry=".4"/>
						</g>
					</g>
				</g>
			</g>
			<g id="&lt;Group&gt;">
				<g id="&lt;Group&gt;">
					<g id="&lt;Group&gt;">
						<g id="&lt;Group&gt;">
							<path id="&lt;Path&gt;" class="s0" d="m388 377c0 0.1-1 0.5-2.3 0.6-1.3 0.1-2.3-0.1-2.3-0.3 0-0.2 1-0.2 2.3-0.3 1.2-0.1 2.2-0.2 2.3 0z"/>
						</g>
					</g>
				</g>
			</g>
			<g id="&lt;Group&gt;">
				<g id="&lt;Group&gt;">
					<g id="&lt;Group&gt;">
						<g id="&lt;Group&gt;">
							<path id="&lt;Path&gt;" class="s0" d="m389.4 367.1c0 0.1-1 0.2-2.1-0.4-1.1-0.5-1.8-1.2-1.7-1.4 0.2-0.1 0.9 0.4 1.9 0.9 1 0.4 1.9 0.7 1.9 0.9z"/>
						</g>
					</g>
				</g>
			</g>
			<g id="&lt;Group&gt;">
				<g id="&lt;Group&gt;">
					<g id="&lt;Group&gt;">
						<g id="&lt;Group&gt;">
							<path id="&lt;Path&gt;" class="s0" d="m405.9 385.9c-0.1 0.1-1.1-0.3-2.3-1.1-1.2-0.7-2.1-1.5-2-1.6 0.1-0.1 1.1 0.3 2.3 1.1 1.2 0.7 2.1 1.5 2 1.6z"/>
						</g>
					</g>
				</g>
			</g>
			<g id="&lt;Group&gt;">
				<g id="&lt;Group&gt;">
					<g id="&lt;Group&gt;">
						<g id="&lt;Group&gt;">
							<path id="&lt;Path&gt;" class="s0" d="m446.1 430.9h-88v-15.6h88z"/>
						</g>
					</g>
				</g>
				<g id="&lt;Group&gt;">
					<g id="&lt;Group&gt;">
						<g id="&lt;Group&gt;">
							<path id="&lt;Path&gt;" class="s0" d="m439.6 427.9l-11.7 46.6h-52.5l-10.7-46.6z"/>
						</g>
					</g>
				</g>
				<g id="&lt;Group&gt;">
					<g id="&lt;Group&gt;">
						<g id="&lt;Group&gt;">
							<g id="&lt;Group&gt;">
								<path id="&lt;Path&gt;" class="s1" d="m446.1 431c0 0.1-19.9 0.3-44.4 0.3-24.5 0-44.3-0.2-44.3-0.3 0-0.2 19.8-0.3 44.3-0.3 24.5 0 44.4 0.1 44.4 0.3z"/>
							</g>
						</g>
					</g>
				</g>
			</g>
			<g id="&lt;Group&gt;">
				<g id="&lt;Group&gt;">
					<g id="&lt;Group&gt;">
						<g id="&lt;Group&gt;">
							<path id="&lt;Path&gt;" class="s0" d="m397.1 377.3c-0.1 0.1-0.7-0.6-1.3-1.5-0.6-1-1-1.8-0.8-1.9 0.1-0.1 0.7 0.6 1.3 1.5 0.6 1 1 1.8 0.8 1.9z"/>
						</g>
					</g>
				</g>
			</g>
			<g id="&lt;Group&gt;">
				<g id="&lt;Group&gt;">
					<g id="&lt;Group&gt;">
						<g id="&lt;Group&gt;">
							<path id="&lt;Path&gt;" class="s0" d="m397.2 389.9c-0.2-0.1 0-1.1 0.4-2.4 0.4-1.2 0.9-2.2 1.1-2.2 0.1 0.1-0.1 1.1-0.5 2.4-0.4 1.3-0.9 2.2-1 2.2z"/>
						</g>
					</g>
				</g>
			</g>
			<g id="&lt;Group&gt;">
				<g id="&lt;Group&gt;">
					<g id="&lt;Group&gt;">
						<g id="&lt;Group&gt;">
							<path id="&lt;Path&gt;" class="s0" d="m401.5 403.1c-0.2 0-0.8-1-1.5-2.4-0.7-1.4-1.1-2.5-0.9-2.6 0.1-0.1 0.8 1 1.5 2.3 0.6 1.4 1 2.6 0.9 2.7z"/>
						</g>
					</g>
				</g>
			</g>
			<g id="&lt;Group&gt;">
				<g id="&lt;Group&gt;">
					<g id="&lt;Group&gt;">
						<g id="&lt;Group&gt;">
							<path id="&lt;Path&gt;" class="s0" d="m392.2 413.7c-0.2-0.2 0.4-1 1.1-1.9 0.8-0.9 1.6-1.5 1.7-1.4 0.1 0.1-0.4 0.9-1.2 1.8-0.8 0.9-1.5 1.6-1.6 1.5z"/>
						</g>
					</g>
				</g>
			</g>
			<g id="&lt;Group&gt;">
				<g id="&lt;Group&gt;">
					<g id="&lt;Group&gt;">
						<g id="&lt;Group&gt;">
							<path id="&lt;Path&gt;" class="s0" d="m390.2 394.4c0 0.2-0.9 0.2-1.9 0-1-0.2-1.8-0.5-1.8-0.6 0.1-0.2 0.9-0.2 1.9 0 1 0.2 1.8 0.4 1.8 0.6z"/>
						</g>
					</g>
				</g>
			</g>
		</g>
		<g id="&lt;Group&gt;">
			<g id="&lt;Group&gt;">
				<g id="&lt;Group&gt;">
					<g id="&lt;Group&gt;">
						<g id="&lt;Group&gt;">
							<g id="&lt;Group&gt;">
								<g id="&lt;Group&gt;">
									<g id="&lt;Group&gt;">
										<g id="&lt;Group&gt;">
											<path id="&lt;Path&gt;" class="s2" d="m321.2 426.3v49.8h-72.9-80.4v-49.8z"/>
										</g>
									</g>
								</g>
							</g>
						</g>
					</g>
				</g>
				<g id="&lt;Group&gt;">
					<g id="&lt;Group&gt;">
						<g id="&lt;Group&gt;">
							<g id="&lt;Group&gt;">
								<g id="&lt;Group&gt;">
									<g id="&lt;Group&gt;">
										<g id="&lt;Group&gt;">
											<path id="&lt;Path&gt;" class="s0" d="m327.6 412.3v14h-165.1v-14h85.8z"/>
										</g>
									</g>
								</g>
							</g>
						</g>
					</g>
				</g>
				<g id="&lt;Group&gt;">
					<g id="&lt;Group&gt;">
						<g id="&lt;Group&gt;">
							<g id="&lt;Group&gt;">
								<g id="&lt;Group&gt;">
									<g id="&lt;Group&gt;">
										<g id="&lt;Group&gt;">
											<path id="&lt;Path&gt;" class="s0" d="m245.1 476.1h-77.2v-49.8h-5.4v-14h85.8v12.7z"/>
										</g>
									</g>
								</g>
							</g>
						</g>
					</g>
				</g>
				<g id="&lt;Group&gt;">
					<g id="&lt;Group&gt;">
						<g id="&lt;Group&gt;">
							<g id="&lt;Group&gt;">
								<g id="&lt;Group&gt;">
									<g id="&lt;Group&gt;">
										<g id="&lt;Group&gt;">
											<path id="&lt;Path&gt;" class="s0" d="m299.7 434.3v7.5h-31.1v-7.5z"/>
										</g>
									</g>
								</g>
							</g>
						</g>
					</g>
				</g>
				<g id="&lt;Group&gt;">
					<g id="&lt;Group&gt;">
						<g id="&lt;Group&gt;">
							<g id="&lt;Group&gt;">
								<g id="&lt;Group&gt;">
									<g id="&lt;Group&gt;">
										<g id="&lt;Group&gt;">
											<path id="&lt;Path&gt;" class="s3" d="m263.8 451.2h39.9v15.8h-39.9z"/>
										</g>
									</g>
								</g>
							</g>
						</g>
					</g>
				</g>
			</g>
		</g>
		<g id="&lt;Group&gt;">
			<g id="&lt;Group&gt;">
				<g id="&lt;Group&gt;">
					<g id="&lt;Group&gt;">
						<g id="&lt;Group&gt;">
							<g id="&lt;Group&gt;">
								<g id="&lt;Group&gt;">
									<path id="&lt;Path&gt;" class="s0" d="m200.4 188.9h-144.6v-150.6h144.6z"/>
								</g>
							</g>
						</g>
					</g>
				</g>
				<g id="&lt;Group&gt;">
					<g id="&lt;Group&gt;">
						<g id="&lt;Group&gt;">
							<g id="&lt;Group&gt;">
								<g id="&lt;Group&gt;">
									<path id="&lt;Path&gt;" class="s4" d="m190.6 188.9h-144.6v-150.6h144.6z"/>
								</g>
							</g>
						</g>
					</g>
					<g id="&lt;Group&gt;">
						<g id="&lt;Group&gt;">
							<g id="&lt;Group&gt;">
								<g id="&lt;Group&gt;">
									<path id="&lt;Compound Path&gt;" class="s2" d="m190.6 189h-144.6v-150.8h144.6z"/>
								</g>
							</g>
						</g>
					</g>
				</g>
				<g id="&lt;Group&gt;">
					<g id="&lt;Group&gt;">
						<g id="&lt;Group&gt;">
							<g id="&lt;Group&gt;">
								<g id="&lt;Group&gt;">
									<path id="&lt;Path&gt;" class="s5" d="m171.1 168.7h-105.6v-110.2h105.6z"/>
								</g>
							</g>
						</g>
					</g>
				</g>
				<g id="&lt;Group&gt;">
					<g id="&lt;Group&gt;">
						<g id="&lt;Group&gt;">
							<g id="&lt;Group&gt;">
								<g id="&lt;Group&gt;">
									<g id="&lt;Group&gt;">
										<path id="&lt;Path&gt;" class="s0" d="m65.5 169.4c0.1 0.1-0.9 1.3-2.6 3-1.7 1.8-4.1 4.2-6.7 6.9-2.7 2.6-5.2 4.9-7 6.6-1.8 1.6-2.9 2.6-3 2.5-0.1-0.1 0.9-1.2 2.6-3 1.7-1.8 4.1-4.2 6.7-6.8 2.7-2.7 5.1-5 6.9-6.7 1.8-1.6 3-2.6 3.1-2.5z"/>
									</g>
								</g>
							</g>
						</g>
					</g>
				</g>
				<g id="&lt;Group&gt;">
					<g id="&lt;Group&gt;">
						<g id="&lt;Group&gt;">
							<g id="&lt;Group&gt;">
								<g id="&lt;Group&gt;">
									<g id="&lt;Group&gt;">
										<path id="&lt;Path&gt;" class="s0" d="m171.1 169.1c0.1 0 1.3 1 3.1 2.7 1.8 1.6 4.2 4 6.8 6.7 2.6 2.6 4.9 5.1 6.6 6.9 1.6 1.8 2.6 2.9 2.5 3-0.1 0.1-1.2-0.9-3-2.6-1.8-1.7-4.2-4-6.8-6.7-2.6-2.7-5-5.1-6.6-6.9-1.7-1.8-2.7-3-2.6-3.1z"/>
									</g>
								</g>
							</g>
						</g>
					</g>
				</g>
				<g id="&lt;Group&gt;">
					<g id="&lt;Group&gt;">
						<g id="&lt;Group&gt;">
							<g id="&lt;Group&gt;">
								<g id="&lt;Group&gt;">
									<g id="&lt;Group&gt;">
										<path id="&lt;Path&gt;" class="s0" d="m170.9 58.8c-0.1-0.1 0.9-1.2 2.6-3 1.6-1.8 4-4.2 6.7-6.8 2.6-2.6 5.1-5 6.9-6.6 1.8-1.7 2.9-2.7 3-2.6 0.1 0.1-0.9 1.3-2.6 3.1-1.6 1.7-4 4.2-6.7 6.8-2.7 2.6-5.1 4.9-6.9 6.6-1.8 1.7-3 2.6-3 2.5z"/>
									</g>
								</g>
							</g>
						</g>
					</g>
				</g>
				<g id="&lt;Group&gt;">
					<g id="&lt;Group&gt;">
						<g id="&lt;Group&gt;">
							<g id="&lt;Group&gt;">
								<g id="&lt;Group&gt;">
									<g id="&lt;Group&gt;">
										<path id="&lt;Path&gt;" class="s0" d="m65.2 59.1c-0.1 0.1-1.3-0.9-3-2.6-1.8-1.7-4.2-4.1-6.9-6.7-2.6-2.7-4.9-5.1-6.6-6.9-1.6-1.8-2.6-3-2.5-3.1 0.1-0.1 1.2 0.9 3 2.6 1.8 1.7 4.2 4.1 6.8 6.7 2.7 2.7 5 5.2 6.7 7 1.6 1.8 2.6 2.9 2.5 3z"/>
									</g>
								</g>
							</g>
						</g>
					</g>
				</g>
				<g id="&lt;Group&gt;">
					<g id="&lt;Group&gt;">
						<g id="&lt;Group&gt;">
							<g id="&lt;Group&gt;">
								<g id="&lt;Group&gt;">
									<g id="&lt;Group&gt;">
										<path id="&lt;Path&gt;" class="s0" d="m170.9 168.7q-0.1 0-0.1-0.5 0-0.6 0-1.6 0-2.1 0-5.9c-0.1-5.3-0.1-12.8-0.1-22.5-0.1-19.3-0.2-46.8-0.3-79.7l0.5 0.4c-30.8 0.1-66.9 0.1-105.4 0.1l0.4-0.5c0 40.5 0 78.3 0 110.2l-0.4-0.4c31.6 0.1 57.8 0.1 76.3 0.2 9.2 0 16.4 0.1 21.4 0.1q3.7 0 5.7 0 0.9 0.1 1.4 0.1 0.5 0 0.6 0 0 0-0.5 0-0.5 0-1.4 0-2 0-5.6 0.1c-5 0-12.2 0-21.4 0.1-18.5 0-44.8 0.1-76.5 0.2h-0.4v-0.4c0-31.9-0.1-69.7-0.1-110.2v-0.4h0.5c38.5 0 74.6 0 105.4 0h0.4v0.4c-0.1 33.1-0.2 60.6-0.2 80-0.1 9.6-0.1 17.1-0.2 22.3q0 3.9 0 5.9 0 1 0 1.5 0 0.5 0 0.5z"/>
									</g>
								</g>
							</g>
						</g>
					</g>
				</g>
			</g>
			<g id="&lt;Group&gt;">
				<g id="&lt;Group&gt;">
					<g id="&lt;Group&gt;">
						<g id="&lt;Group&gt;">
							<g id="&lt;Group&gt;">
								<path id="&lt;Path&gt;" class="s2" d="m98.8 143.5c-7.9-8-8.4-22.3-1-30.8 2.9-3.4 6.8-5.8 9.6-9.4 5.8-7.6 5.8-19.7 14-24.9 5.9-3.7 14.5-1.6 18.9 3.9 4.4 5.6 4.7 13.7 1.9 20.1-2.1 4.8-5.7 8.9-7.2 13.9-1.6 5.1-0.7 10.7-2.3 15.8-1.9 6.1-8.4 10-14.4 12.2-6.1 2.3-13.8 1.7-19.5-0.8z"/>
							</g>
						</g>
					</g>
				</g>
				<g id="&lt;Group&gt;">
					<g id="&lt;Group&gt;">
						<g id="&lt;Group&gt;">
							<g id="&lt;Group&gt;">
								<g id="&lt;Group&gt;">
									<path id="&lt;Path&gt;" class="s0" d="m128.5 92.7c0.1 0-0.3 1.1-1 2.9-0.7 1.9-1.8 4.5-3.3 7.8-2.9 6.4-7.3 15.2-13 24.4-5.7 9.3-11.6 17.1-16.1 22.6-2.3 2.8-4.1 5-5.5 6.4-1.3 1.5-2.1 2.3-2.1 2.2-0.1 0 0.6-0.9 1.8-2.4 1.3-1.6 3.1-3.8 5.3-6.6 4.3-5.6 10.1-13.5 15.8-22.7 5.7-9.1 10.2-17.8 13.2-24.2 1.6-3.2 2.8-5.8 3.6-7.6 0.8-1.8 1.3-2.8 1.3-2.8z"/>
								</g>
							</g>
						</g>
					</g>
				</g>
				<g id="&lt;Group&gt;">
					<g id="&lt;Group&gt;">
						<g id="&lt;Group&gt;">
							<g id="&lt;Group&gt;">
								<g id="&lt;Group&gt;">
									<path id="&lt;Path&gt;" class="s0" d="m106.7 111.8c0.1 0 0.4 2.1 0.8 5.6 0.5 3.5 1 8.3 1.5 13.8l-0.7-0.4q1.1-0.6 2.3-1.3c5.3-3.1 10.1-5.8 13.6-7.8 3.5-1.9 5.7-3.1 5.7-3 0.1 0.1-2 1.5-5.4 3.6-3.4 2.1-8.2 4.9-13.4 8q-1.2 0.7-2.3 1.3l-0.7 0.4v-0.7c-0.5-5.5-0.9-10.4-1.2-13.9-0.2-3.5-0.3-5.6-0.2-5.6z"/>
								</g>
							</g>
						</g>
					</g>
				</g>
				<g id="&lt;Group&gt;">
					<g id="&lt;Group&gt;">
						<g id="&lt;Group&gt;">
							<g id="&lt;Group&gt;">
								<g id="&lt;Group&gt;">
									<path id="&lt;Path&gt;" class="s0" d="m134.4 103.7c0.1 0.1-1.3 0.8-3.5 2-2.3 1.1-5.4 2.6-8.9 4.2q-0.6 0.2-1.1 0.5l-0.5 0.2-0.1-0.6c-0.6-3.5-1-6.7-1.3-8.9-0.3-2.3-0.4-3.7-0.3-3.7 0.1 0 0.5 1.3 0.9 3.6 0.5 2.2 1 5.3 1.6 8.8l-0.7-0.3q0.6-0.2 1.1-0.5c3.5-1.6 6.7-3 9-4 2.3-0.9 3.8-1.5 3.8-1.3z"/>
								</g>
							</g>
						</g>
					</g>
				</g>
			</g>
			<g id="&lt;Group&gt;">
				<g id="&lt;Group&gt;">
					<g id="&lt;Group&gt;">
						<g id="&lt;Group&gt;">
							<g id="&lt;Group&gt;">
								<path id="&lt;Path&gt;" class="s6" d=""/>
							</g>
						</g>
					</g>
				</g>
			</g>
		</g>
	</g>
	<g id="Desk">
		<g id="&lt;Group&gt;">
			<g id="&lt;Group&gt;">
				<g id="&lt;Group&gt;">
					<path id="&lt;Path&gt;" class="s7" d="m464.8 474.5c0 0.1-98 0.2-218.8 0.2-120.8 0-218.8-0.1-218.8-0.2 0-0.2 98-0.3 218.8-0.3 120.8 0 218.8 0.1 218.8 0.3z"/>
				</g>
			</g>
		</g>
	</g>
</svg>