<svg version="1.2" xmlns="http://www.w3.org/2000/svg" viewBox="0 0 208 394" width="208" height="394">
	<title>4530762-ai</title>
	<style>
		.s0 { fill: #263238 } 
		.s1 { fill: #ff725e } 
		.s2 { fill: #996964 } 
		.s3 { fill: #784d48 } 
		.s4 { fill: #455a64 } 
		.s5 { fill: #ffffff } 
		.s6 { fill: #000000 } 
		.s7 { fill: #ebebeb } 
		.s8 { fill: #e0e0e0 } 
	</style>
	<g id="Character">
		<g id="&lt;Group&gt;">
			<g id="&lt;Group&gt;">
				<g id="&lt;Group&gt;">
					<g id="&lt;Group&gt;">
						<path id="&lt;Path&gt;" class="s0" d="m159.2 141c-0.3 0.8-0.9 1.8-2 2.7-1.2 0.9-3.1 1.7-5.2 1.1-2-0.5-4.1-2.4-4.5-5.1-0.3-1.4 0-2.9 0.8-4.1 0.7-1.3 1.8-2.4 3-3.3 2.4-1.9 5.4-3.4 7-6.3 1.7-2.8 2.2-6.5 1.1-9.9-0.5-1.7-1.4-3.3-2.5-4.8-1.2-1.5-2.7-2.6-4.2-3.8-1.6-1.2-3.2-2.4-4.5-3.8-1.3-1.5-2.3-3.4-2.3-5.4-0.1-2 0.6-3.8 1.6-5.4 0.9-1.6 2.1-2.9 3.3-4.1 2.5-2.3 5.1-4.3 6.6-6.9 1.6-2.4 2.2-5.2 2.1-7.7-0.1-2.6-0.9-4.7-1.7-6.6-0.7-1.9-1.4-3.5-1.7-5-0.3-1.4-0.3-2.5-0.2-3.3 0-0.4 0.2-0.6 0.2-0.8q0.1-0.3 0.1-0.3c0.1 0-0.5 1.6 0.3 4.4 0.3 1.3 1 2.9 1.8 4.8 0.8 1.9 1.8 4.1 1.9 6.7 0.1 2.7-0.5 5.6-2.1 8.3-1.6 2.7-4.2 4.7-6.6 7-1.2 1.2-2.4 2.5-3.2 4-0.9 1.5-1.5 3.1-1.5 4.9 0.1 1.7 0.9 3.4 2.1 4.7 1.2 1.4 2.8 2.5 4.4 3.7 1.5 1.2 3.1 2.5 4.3 4 1.2 1.6 2.1 3.3 2.7 5.1 1.1 3.7 0.6 7.7-1.2 10.7-1.9 3.1-5 4.6-7.3 6.4-1.2 0.9-2.2 1.9-2.9 3-0.7 1.2-1 2.5-0.8 3.7 0.4 2.4 2.2 4.2 4.1 4.7 1.9 0.6 3.6-0.1 4.7-0.9 2.3-1.7 2.4-3.6 2.5-3.5q0 0.4-0.2 1.1z"/>
					</g>
				</g>
				<g id="&lt;Group&gt;">
					<g id="&lt;Group&gt;">
						<path id="&lt;Path&gt;" class="s0" d="m58.1 84.1c-2.5 5.1-1.6 11-2.6 16.5-0.7 4-2.4 7.7-3.4 11.6-1 3.9-1.2 8.3 0.7 11.8 2.2 3.8 6.7 6.2 7.7 10.5 1.6 6.8-6.9 12.1-7.9 19.1-0.7 5.3 3.1 10 6 14.4 4.5 6.7 7.6 14.1 9.3 21.9 0.1 0.7 0.2 1.4 0 2-0.3 0.8-1.2 1.2-2 1.6-12.5 5.3-26.9 2-40.1-1.3-0.7-5.4 2.7-10.8 1.8-16.2-0.6-3.4-2.9-6.3-4.1-9.6-1.5-3.8-1.4-8.2 0.2-12 1-2.5 2.6-4.6 3.7-7 1.9-4.3 2.2-9.2 0.7-13.7-1.4-4.5-4.5-8.3-5.8-12.8-1.3-4.7-0.4-10 2.3-14.1 1.2-1.7 2.7-3.2 3.7-5.1 3.2-5.9 0.6-13-1.2-19.5-2-7.2-2.8-15.1 0.1-21.9 1.8-4.1 4.8-7.6 8.1-10.6 3.4-3 7.7-5.8 12.2-5.3 3.2 0.3 6.1 2.2 9.3 2.4"/>
					</g>
				</g>
				<g id="&lt;Group&gt;">
					<g id="&lt;Group&gt;">
						<g id="&lt;Group&gt;">
							<path id="&lt;Path&gt;" class="s1" d="m62.4 42.5c1.1 1 1.3 2.7 1.3 4.3q0 2.5-0.6 5.4-0.6 2.8-1.5 5.2c-0.7 1.5-1.5 2.9-2.8 3.5-1.3 0.5-3-0.1-4.4-2.1-0.7-1-1.3-2.2-1.6-3.7-0.2-1.5-0.3-3.2 0.1-5 0.3-1.7 1-3.2 1.8-4.5 0.9-1.3 1.9-2.3 2.9-2.9 2-1.3 3.8-1.2 4.8-0.2z"/>
						</g>
					</g>
				</g>
				<g id="&lt;Group&gt;">
					<g id="&lt;Group&gt;">
						<path id="&lt;Path&gt;" class="s0" d="m46.8 95.1c-1.9-5.2-0.2-11 2.3-16 2.5-4.9 5.8-9.5 7.5-14.8 1.9-5.7 1.8-12 4.1-17.5 2.3-5.7 7.3-10.4 13.2-12.3 3.5-1.2 7.5-1.5 10.6-3.7 3.2-2.2 4.8-6 7.2-9 3.9-4.9 7.7-9.2 13.5-11.6 6.6-2.8 16.3-3.8 23-1.1 4.2 1.7 7.4 5.2 9.4 9.2 2.1 4.1 3.1 8.5 3.7 13 6.8 1.3 10.7 8.3 13.7 14.5 1.7 3.5 3.5 7.1 3.6 11 0.2 4.4-3.6 19.3-5.7 23.1-10.9 19.6-27 23.8-46.7 34.6-7.5 4.2-12.2 13.9-20.9 13.5-10.1-0.4-19.9-0.7-25.8-9-5.8-8.2-12.4-16-13.3-26"/>
					</g>
				</g>
				<g id="&lt;Group&gt;">
					<g id="&lt;Group&gt;">
						<path id="&lt;Path&gt;" class="s2" d="m149.3 110.4q-4.3 23.3-22.3 25.9c0-0.1-0.1 3.4-0.4 11.9q0.6 7-0.5 14.4c-0.1 0.8-0.1 1.5-0.1 2.2h-0.3c-1.3 6.4-4.1 12.6-9.9 14.3q-29.1 8.3-38.3-21.7 0.2 0 0.3 0l-2.2-105.5c0.1-4.3 3.4-7.9 7.6-8.2l44-10c14-1.2 22.9 16.3 23.5 30.3 0.6 15.7 0.7 34.8-1.4 46.4z"/>
					</g>
				</g>
				<g id="&lt;Group&gt;">
					<g id="&lt;Group&gt;">
						<g id="&lt;Group&gt;">
							<g id="&lt;Group&gt;">
								<g id="&lt;Group&gt;">
									<g id="&lt;Group&gt;">
										<g id="&lt;Group&gt;">
											<g id="&lt;Group&gt;">
												<g id="&lt;Group&gt;">
													<g id="&lt;Group&gt;">
														<g id="&lt;Group&gt;">
															<g id="&lt;Group&gt;">
																<g id="&lt;Group&gt;">
																	<g id="&lt;Group&gt;">
																		<g id="&lt;Group&gt;">
																			<ellipse id="&lt;Path&gt;" class="s0" cx="109.8" cy="82.6" rx="3" ry="2.9"/>
																		</g>
																	</g>
																</g>
															</g>
														</g>
													</g>
												</g>
											</g>
										</g>
									</g>
								</g>
							</g>
						</g>
						<g id="&lt;Group&gt;">
							<g id="&lt;Group&gt;">
								<g id="&lt;Group&gt;">
									<g id="&lt;Group&gt;">
										<g id="&lt;Group&gt;">
											<g id="&lt;Group&gt;">
												<g id="&lt;Group&gt;">
													<g id="&lt;Group&gt;">
														<g id="&lt;Group&gt;">
															<g id="&lt;Group&gt;">
																<g id="&lt;Group&gt;">
																	<g id="&lt;Group&gt;">
																		<g id="&lt;Group&gt;">
																			<ellipse id="&lt;Path&gt;" class="s0" cx="140.2" cy="81.7" rx="3" ry="2.9"/>
																		</g>
																	</g>
																</g>
															</g>
														</g>
													</g>
												</g>
											</g>
										</g>
									</g>
								</g>
							</g>
						</g>
						<g id="&lt;Group&gt;">
							<g id="&lt;Group&gt;">
								<g id="&lt;Group&gt;">
									<g id="&lt;Group&gt;">
										<g id="&lt;Group&gt;">
											<g id="&lt;Group&gt;">
												<g id="&lt;Group&gt;">
													<g id="&lt;Group&gt;">
														<g id="&lt;Group&gt;">
															<g id="&lt;Group&gt;">
																<g id="&lt;Group&gt;">
																	<g id="&lt;Group&gt;">
																		<g id="&lt;Group&gt;">
																			<g id="&lt;Group&gt;">
																				<path id="&lt;Path&gt;" class="s0" d="m147.5 74.3c-0.4 0.5-3-1.5-6.5-1.4-3.5 0.1-6 2.4-6.4 1.9-0.2-0.2 0.2-1.2 1.2-2.2 1.1-1 2.9-2 5.1-2 2.2-0.1 4.1 0.7 5.2 1.7 1.2 0.9 1.6 1.8 1.4 2z"/>
																			</g>
																		</g>
																	</g>
																</g>
															</g>
														</g>
													</g>
												</g>
											</g>
										</g>
									</g>
								</g>
							</g>
						</g>
					</g>
					<g id="&lt;Group&gt;">
						<g id="&lt;Group&gt;">
							<g id="&lt;Group&gt;">
								<g id="&lt;Group&gt;">
									<g id="&lt;Group&gt;">
										<g id="&lt;Group&gt;">
											<g id="&lt;Group&gt;">
												<g id="&lt;Group&gt;">
													<g id="&lt;Group&gt;">
														<g id="&lt;Group&gt;">
															<g id="&lt;Group&gt;">
																<g id="&lt;Group&gt;">
																	<g id="&lt;Group&gt;">
																		<g id="&lt;Group&gt;">
																			<g id="&lt;Group&gt;">
																				<path id="&lt;Path&gt;" class="s0" d="m114.9 74.8c-0.4 0.4-3-1.8-6.7-2-3.8-0.3-6.6 1.6-7 1.1-0.2-0.3 0.3-1.1 1.5-2 1.3-0.8 3.3-1.6 5.7-1.5 2.3 0.2 4.2 1.2 5.3 2.2 1.1 1.1 1.4 2 1.2 2.2z"/>
																			</g>
																		</g>
																	</g>
																</g>
															</g>
														</g>
													</g>
												</g>
											</g>
										</g>
									</g>
								</g>
							</g>
						</g>
					</g>
					<g id="&lt;Group&gt;">
						<g id="&lt;Group&gt;">
							<g id="&lt;Group&gt;">
								<g id="&lt;Group&gt;">
									<g id="&lt;Group&gt;">
										<g id="&lt;Group&gt;">
											<g id="&lt;Group&gt;">
												<g id="&lt;Group&gt;">
													<g id="&lt;Group&gt;">
														<g id="&lt;Group&gt;">
															<g id="&lt;Group&gt;">
																<g id="&lt;Group&gt;">
																	<g id="&lt;Group&gt;">
																		<g id="&lt;Group&gt;">
																			<g id="&lt;Group&gt;">
																				<path id="&lt;Path&gt;" class="s0" d="m125.7 98c0-0.2 2-0.5 5.2-0.9 0.9 0 1.7-0.2 1.8-0.7 0.2-0.6-0.1-1.5-0.5-2.5q-1.1-3-2.3-6.3c-3.2-9.1-5.4-16.5-5.1-16.6 0.4-0.1 3.3 7.1 6.4 16.1q1.2 3.4 2.2 6.4c0.3 0.9 0.8 2 0.4 3.2-0.3 0.7-0.9 1.1-1.4 1.2-0.5 0.2-1 0.2-1.4 0.2-3.3 0.1-5.3 0-5.3-0.1z"/>
																			</g>
																		</g>
																	</g>
																</g>
															</g>
														</g>
													</g>
												</g>
											</g>
										</g>
									</g>
								</g>
							</g>
						</g>
					</g>
					<g id="&lt;Group&gt;">
						<g id="&lt;Group&gt;">
							<g id="&lt;Group&gt;">
								<g id="&lt;Group&gt;">
									<g id="&lt;Group&gt;">
										<g id="&lt;Group&gt;">
											<g id="&lt;Group&gt;">
												<g id="&lt;Group&gt;">
													<g id="&lt;Group&gt;">
														<g id="&lt;Group&gt;">
															<g id="&lt;Group&gt;">
																<g id="&lt;Group&gt;">
																	<g id="&lt;Group&gt;">
																		<g id="&lt;Group&gt;">
																			<path id="&lt;Path&gt;" class="s3" d="m126.8 142.3q-23.5 1.6-31-15.2 15.4 9.8 31.2 9.2z"/>
																		</g>
																	</g>
																</g>
															</g>
														</g>
													</g>
												</g>
											</g>
										</g>
									</g>
								</g>
							</g>
						</g>
					</g>
					<g id="&lt;Group&gt;">
						<g id="&lt;Group&gt;">
							<g id="&lt;Group&gt;">
								<g id="&lt;Group&gt;">
									<g id="&lt;Group&gt;">
										<g id="&lt;Group&gt;">
											<g id="&lt;Group&gt;">
												<g id="&lt;Group&gt;">
													<g id="&lt;Group&gt;">
														<g id="&lt;Group&gt;">
															<g id="&lt;Group&gt;">
																<g id="&lt;Group&gt;">
																	<g id="&lt;Group&gt;">
																		<g id="&lt;Group&gt;">
																			<path id="&lt;Path&gt;" class="s3" d="m124.3 105.8c0.2 0.4 0.2 0.9-0.1 1.2-0.2 0.4-0.6 0.7-0.9 1-1.3 0.9-2.7 1.9-4.2 2.3-1.6 0.4-3.4 0.1-4.2-1.1-0.8-1.1-0.5-2.8 0.3-3.9 0.9-1.1 2.3-1.7 3.7-1.9 2.1-0.1 4.1 0.8 5.2 2.3"/>
																		</g>
																	</g>
																</g>
															</g>
														</g>
													</g>
												</g>
											</g>
										</g>
									</g>
								</g>
							</g>
						</g>
					</g>
					<g id="&lt;Group&gt;">
						<g id="&lt;Group&gt;">
							<g id="&lt;Group&gt;">
								<g id="&lt;Group&gt;">
									<g id="&lt;Group&gt;">
										<g id="&lt;Group&gt;">
											<g id="&lt;Group&gt;">
												<g id="&lt;Group&gt;">
													<g id="&lt;Group&gt;">
														<g id="&lt;Group&gt;">
															<g id="&lt;Group&gt;">
																<g id="&lt;Group&gt;">
																	<g id="&lt;Group&gt;">
																		<g id="&lt;Group&gt;">
																			<g id="&lt;Group&gt;">
																				<path id="&lt;Path&gt;" class="s0" d="m116.1 100c0.5 0 0.5 3.5 3.4 6 2.9 2.6 6.7 2.3 6.7 2.8 0 0.2-0.8 0.6-2.4 0.6-1.6 0.1-3.8-0.5-5.6-2.1-1.8-1.5-2.6-3.6-2.6-5-0.1-1.5 0.3-2.4 0.5-2.3z"/>
																			</g>
																		</g>
																	</g>
																</g>
															</g>
														</g>
													</g>
												</g>
											</g>
										</g>
									</g>
								</g>
							</g>
						</g>
					</g>
				</g>
				<g id="&lt;Group&gt;">
					<g id="&lt;Group&gt;">
						<g id="&lt;Group&gt;">
							<g id="&lt;Group&gt;">
								<g id="&lt;Group&gt;">
									<g id="&lt;Group&gt;">
										<g id="&lt;Group&gt;">
											<g id="&lt;Group&gt;">
												<g id="&lt;Group&gt;">
													<g id="&lt;Group&gt;">
														<g id="&lt;Group&gt;">
															<g id="&lt;Group&gt;">
																<path id="&lt;Path&gt;" class="s0" d="m115.7 63.8c-0.3 0.9-3.5 0.4-7.3 0.8-3.9 0.3-6.9 1.3-7.4 0.5-0.2-0.4 0.3-1.2 1.6-2 1.2-0.8 3.2-1.6 5.5-1.8 2.3-0.2 4.3 0.2 5.7 0.8 1.4 0.6 2.1 1.3 1.9 1.7z"/>
															</g>
														</g>
													</g>
												</g>
											</g>
										</g>
									</g>
								</g>
							</g>
						</g>
					</g>
				</g>
				<g id="&lt;Group&gt;">
					<g id="&lt;Group&gt;">
						<g id="&lt;Group&gt;">
							<g id="&lt;Group&gt;">
								<g id="&lt;Group&gt;">
									<g id="&lt;Group&gt;">
										<g id="&lt;Group&gt;">
											<g id="&lt;Group&gt;">
												<g id="&lt;Group&gt;">
													<g id="&lt;Group&gt;">
														<g id="&lt;Group&gt;">
															<g id="&lt;Group&gt;">
																<path id="&lt;Path&gt;" class="s0" d="m145.3 64.5c-0.7 0.7-3.2-0.1-6.2-0.2-3.1-0.2-5.7 0.3-6.3-0.4-0.2-0.4 0.2-1.1 1.3-1.8 1.2-0.7 3.1-1.2 5.2-1.1 2.1 0.1 3.9 0.8 4.9 1.6 1.1 0.8 1.4 1.5 1.1 1.9z"/>
															</g>
														</g>
													</g>
												</g>
											</g>
										</g>
									</g>
								</g>
							</g>
						</g>
					</g>
				</g>
				<g id="&lt;Group&gt;">
					<g id="&lt;Group&gt;">
						<path id="&lt;Path&gt;" class="s0" d="m73.5 46.1c2.5-3.1 6.5-4.4 10.3-5.5 16.5-4.5 33.5-7 50.5-7.6 1.8 3.7-0.6 8.2-4.1 10.4-3.4 2.2-7.6 2.8-11.5 3.8-3.9 1.1-8 2.9-9.9 6.4-2.1 3.8-1.2 8.7-3 12.6-3.3 6.7-13.2 7.9-16.4 14.7-2.4 5.1-0.8 3.9-0.6 9.5 0.2 6.4-3.7 7.3-8.7 11.2-4 3.1-11.6 6.7-16.6 6.3 0.8-20.1 6-29.8 6.9-49.9 0.2-4.2 0.5-8.7 3.1-11.9z"/>
					</g>
				</g>
				<g id="&lt;Group&gt;">
					<g id="&lt;Group&gt;">
						<g id="&lt;Group&gt;">
							<path id="&lt;Path&gt;" class="s4" d="m101.6 14.1q-0.1 0 0.4-0.3c0.3-0.2 0.7-0.5 1.2-0.8 1.2-0.6 2.9-1.3 5.1-1.9 2.3-0.5 5.1-0.7 8.1-0.3 3 0.4 6.3 1.5 9.2 3.5 3 2 5.2 4.7 6.6 7.4 1.4 2.7 2.2 5.4 2.5 7.7 0.3 2.3 0.2 4.1 0 5.4-0.1 0.7-0.2 1.1-0.3 1.5q-0.1 0.5-0.1 0.5c-0.2 0 0.7-2.9 0-7.4-0.3-2.2-1.1-4.9-2.5-7.5-1.5-2.6-3.6-5.2-6.4-7.2-2.9-1.9-6.1-3-9.1-3.5-2.9-0.4-5.7-0.2-7.9 0.3-4.5 1-6.8 2.8-6.8 2.6z"/>
						</g>
					</g>
				</g>
				<g id="&lt;Group&gt;">
					<g id="&lt;Group&gt;">
						<g id="&lt;Group&gt;">
							<path id="&lt;Path&gt;" class="s4" d="m79 33.1q0.1 0 0.7 0 0.7 0 1.9-0.2c0.9-0.2 1.8-0.5 2.9-1q1.6-0.8 3.4-2.2c1.2-0.9 2.5-2 3.9-3 1.4-1.1 2.9-2.3 4.7-3.1 3.7-1.8 8.1-2.8 12.8-2.5 4.6 0.2 8.9 1.7 12.3 3.9 3.4 2.1 6 4.8 7.7 7.3 1.7 2.5 2.7 4.8 3.2 6.4q0.4 1.2 0.5 1.9 0.2 0.6 0.1 0.6c0 0.1-0.2-0.9-0.8-2.4-0.6-1.6-1.6-3.8-3.3-6.3-1.8-2.4-4.3-5-7.6-7.1-3.4-2.1-7.6-3.5-12.2-3.8-4.5-0.2-8.9 0.7-12.4 2.4-1.8 0.8-3.4 1.9-4.8 3-1.4 1.1-2.7 2.1-3.9 3q-1.8 1.3-3.5 2.1c-1.1 0.6-2.1 0.8-2.9 1q-1.3 0.2-2 0.1-0.7-0.1-0.7-0.1z"/>
						</g>
					</g>
				</g>
				<g id="&lt;Group&gt;">
					<g id="&lt;Group&gt;">
						<g id="&lt;Group&gt;">
							<path id="&lt;Path&gt;" class="s4" d="m59.3 58.1c0.1 0 0.2 2.3 1.3 5.8 1 3.4 3.3 8 7.5 11.7 4.1 3.7 8.9 5.5 12.5 6.1 3.5 0.7 5.8 0.5 5.8 0.6q0 0-0.4 0.1c-0.3 0-0.7 0-1.2 0-1 0.1-2.5 0-4.3-0.3-3.6-0.6-8.6-2.4-12.8-6.1-4.2-3.8-6.5-8.5-7.5-12-0.5-1.8-0.7-3.3-0.8-4.3-0.1-0.5-0.1-0.9-0.1-1.2q0-0.4 0-0.4z"/>
						</g>
					</g>
				</g>
				<g id="&lt;Group&gt;">
					<g id="&lt;Group&gt;">
						<g id="&lt;Group&gt;">
							<path id="&lt;Path&gt;" class="s4" d="m81.5 92.9c0 0-0.5-0.1-1.5-0.3-1.1-0.2-2.5-0.5-4.3-1.1-3.5-1-8.4-3-12.5-7-4.2-3.9-6.2-9-6.5-12.7-0.2-1.8-0.1-3.4 0.1-4.4 0.1-0.5 0.2-0.9 0.3-1.1q0.1-0.4 0.1-0.4c0.2 0-0.6 2.2-0.2 5.9 0.4 3.6 2.4 8.5 6.5 12.4 4.1 3.8 8.9 5.8 12.3 7 1.8 0.6 3.2 1 4.2 1.2 1 0.3 1.6 0.5 1.5 0.5z"/>
						</g>
					</g>
				</g>
				<g id="&lt;Group&gt;">
					<g id="&lt;Group&gt;">
						<g id="&lt;Group&gt;">
							<path id="&lt;Path&gt;" class="s0" d="m155 29.4c0 0.1-3.5-0.7-7.7 0.1-4.2 0.8-7.1 2.8-7.1 2.7-0.1-0.1 0.6-0.6 1.8-1.3 1.3-0.7 3.1-1.5 5.2-1.9 2.2-0.4 4.2-0.4 5.6-0.2 1.4 0.2 2.2 0.5 2.2 0.6z"/>
						</g>
					</g>
				</g>
				<g id="&lt;Group&gt;">
					<g id="&lt;Group&gt;">
						<g id="&lt;Group&gt;">
							<path id="&lt;Path&gt;" class="s0" d="m145.7 17.2c0 0 0.2 1 0.1 2.5 0 1.5-0.3 3.6-1 5.8-0.7 2.3-1.7 4.1-2.6 5.4-0.9 1.3-1.5 1.9-1.6 1.9-0.1-0.1 2.3-3 3.7-7.4 1.5-4.4 1.2-8.2 1.4-8.2z"/>
						</g>
					</g>
				</g>
				<g id="&lt;Group&gt;">
					<g id="&lt;Group&gt;">
						<g id="&lt;Group&gt;">
							<path id="&lt;Path&gt;" class="s0" d="m48.6 130c0 0 1.2 1 3.4 1.9 2.2 1 5.6 1.8 9.2 1 3.6-0.8 6.4-2.9 8-4.6 1.6-1.8 2.2-3.2 2.3-3.2 0 0-0.1 0.4-0.4 1-0.3 0.6-0.9 1.5-1.7 2.4-1.5 1.9-4.4 4.1-8.1 4.9-3.8 0.8-7.3-0.1-9.5-1.1-1.1-0.6-1.9-1.1-2.5-1.5-0.5-0.5-0.8-0.7-0.7-0.8z"/>
						</g>
					</g>
				</g>
				<g id="&lt;Group&gt;">
					<g id="&lt;Group&gt;">
						<g id="&lt;Group&gt;">
							<path id="&lt;Path&gt;" class="s0" d="m41.9 122.8c0 0 0.6 0.1 1.8 0.2 1.1 0.2 2.7 0.4 4.6-0.3 0.9-0.3 1.7-1.1 2.3-2.1 0.2-0.5 0.4-1 0.4-1.6-0.1-0.6-0.3-1.2-0.7-1.6-0.8-0.9-2.4-1.2-3.5-0.6-1.3 0.6-2 2.1-2 3.5 0 1.5 0.7 2.9 1.6 3.9 1 1 2.2 1.7 3.4 2.2 2.5 0.8 5 0.6 6.8 0 1.9-0.7 3.2-1.7 4-2.5q0.2-0.3 0.5-0.5 0.2-0.3 0.3-0.5 0.3-0.3 0.3-0.3 0 0-0.2 0.4-0.1 0.2-0.3 0.5-0.2 0.2-0.5 0.5c-0.7 0.9-2 2-4 2.7-1.9 0.7-4.4 1-7.1 0.1-1.2-0.4-2.5-1.2-3.5-2.3-1-1.1-1.8-2.5-1.8-4.2 0-1.6 0.8-3.2 2.2-3.9 1.4-0.7 3.2-0.4 4.2 0.6 0.5 0.6 0.7 1.3 0.7 2 0 0.7-0.2 1.3-0.5 1.8-0.5 1.1-1.5 1.9-2.5 2.3-2 0.7-3.7 0.3-4.8 0.1q-0.8-0.1-1.2-0.2-0.5-0.1-0.5-0.2z"/>
						</g>
					</g>
				</g>
				<g id="&lt;Group&gt;">
					<g id="&lt;Group&gt;">
						<g id="&lt;Group&gt;">
							<path id="&lt;Path&gt;" class="s2" d="m81.7 104.8c0 0.4-14.9 3.3-14.7-11.4 0.1-14.8 14.4-10 14.8-9.8q0 20.8-0.1 21.2z"/>
						</g>
					</g>
				</g>
				<g id="&lt;Group&gt;">
					<g id="&lt;Group&gt;">
						<g id="&lt;Group&gt;">
							<g id="&lt;Group&gt;">
								<path id="&lt;Path&gt;" class="s3" d="m76.8 99.9c-0.5 0.3-1.3 0.6-2.4 0.4-2.1-0.7-3.6-3.5-3.7-6.5 0-1.5 0.4-2.9 1-4.1 0.5-1.1 1.5-2.2 2.7-2.2 0.5-0.1 1 0.1 1.4 0.4 0.3 0.3 0.5 0.6 0.6 0.9 0.1 0.6-0.2 0.9-0.3 0.9 0-0.1 0.1-0.4-0.1-0.8-0.2-0.4-0.8-0.9-1.5-0.7-0.8 0.1-1.5 0.9-2 2-0.5 1-0.8 2.3-0.7 3.6 0 2.7 1.3 5.2 2.8 5.8 0.8 0.3 1.5 0.1 2-0.1 0.4-0.1 0.6-0.4 0.7-0.3 0 0-0.1 0.3-0.5 0.7z"/>
							</g>
						</g>
					</g>
				</g>
				<g id="&lt;Group&gt;">
					<g id="&lt;Group&gt;">
						<g id="&lt;Group&gt;">
							<path id="&lt;Path&gt;" class="s5" d="m69.3 101.6q0.1 0-0.6 0.4c-0.5 0.3-1.2 0.6-2 1.2-1.6 1-3.9 3.1-5.2 6.3-0.7 1.7-1.1 3.6-1.1 5.6 0.1 2.1 0.6 4.3 1.7 6.3 1.1 2.1 2.8 3.9 4.9 5.2 2.2 1.3 4.8 2.1 7.4 2.1 1.4 0 2.7-0.2 3.9-0.6 1.3-0.4 2.4-0.9 3.5-1.6 2.1-1.4 3.7-3.3 4.8-5.3 2.1-4.2 1.8-8.8 0.4-11.9-1.5-3.3-3.7-5.2-5.4-6.3-1.6-1-2.7-1.3-2.7-1.4q1.1 0.2 2.8 1.3c1.8 0.9 4.1 2.9 5.6 6.2 0.8 1.7 1.2 3.6 1.3 5.7 0 2.2-0.5 4.5-1.6 6.6-1.1 2.1-2.7 4.1-4.9 5.5-1.1 0.7-2.3 1.3-3.6 1.7-1.3 0.4-2.7 0.6-4.1 0.6-2.7 0.1-5.4-0.8-7.6-2.1-2.2-1.4-4-3.3-5.1-5.4-1.1-2.2-1.7-4.4-1.7-6.6 0-2.1 0.4-4.1 1.1-5.7 1.5-3.3 3.8-5.4 5.5-6.4 0.8-0.5 1.6-0.8 2-1.1q0.7-0.3 0.7-0.3z"/>
						</g>
					</g>
				</g>
				<g id="&lt;Group&gt;">
					<g id="&lt;Group&gt;">
						<g id="&lt;Group&gt;">
							<path id="&lt;Path&gt;" class="s4" d="m58.1 56.6q0.1 0 0 0.7c0 0.4 0 1.2-0.2 2-0.2 1.8-0.9 4.4-2.1 7.3-1.3 3-3.2 6.4-5.1 10.1-1 1.9-1.9 3.9-2.8 6-0.8 2.2-1.5 4.5-1.8 6.9-0.6 4.8 0.3 9.5 2 13.3 0.9 1.9 1.9 3.6 3.1 5.1 1.1 1.5 2.2 2.9 3.2 4.2 2 2.5 3.6 4.4 4.8 5.8q0.9 1 1.4 1.6 0.5 0.5 0.4 0.5 0 0-0.5-0.5-0.5-0.5-1.4-1.5c-1.3-1.3-3-3.2-5-5.7q-1.6-1.8-3.3-4.1c-1.1-1.5-2.3-3.2-3.1-5.2-1.8-3.9-2.7-8.7-2.1-13.6 0.3-2.5 1-4.8 1.8-7 0.9-2.1 1.9-4.1 2.9-6 1.9-3.8 3.8-7.1 5.1-10 1.3-2.9 2-5.4 2.3-7.2 0.2-0.9 0.2-1.6 0.3-2q0.1-0.7 0.1-0.7z"/>
						</g>
					</g>
				</g>
				<g id="&lt;Group&gt;">
					<g id="&lt;Group&gt;">
						<g id="&lt;Group&gt;">
							<path id="&lt;Path&gt;" class="s0" d="m12 140.4c0 0 0-0.2-0.1-0.4-0.1-0.2-0.4-0.5-0.8-0.6-0.5-0.2-1.1-0.2-1.7 0.1-0.6 0.3-1.1 1-1.3 1.9-0.2 0.8-0.2 1.9 0 2.9 0.2 1.1 0.6 2.3 1.4 3.2 0.9 0.9 2.3 1.4 3.7 1.1 1.4-0.2 2.8-0.9 3.8-2.2 0.9-1.3 1.4-2.9 1.5-4.7 0.1-1.7-0.1-3.6-0.5-5.4-0.7-3.8-2.2-7.6-3.4-11.8-1.2-4.1-2-8.7-1.2-13.4 0.4-2.3 1.4-4.7 2.9-6.6 1.5-1.9 3.4-3.5 4.5-5.7 1.1-2.2 1.6-4.6 1.7-7 0.2-2.4 0-4.8-0.4-7.1-0.7-4.6-1.8-9-1.9-13.4-0.1-4.3 1-8.4 2.7-11.9 1.7-3.4 4.1-6.2 6.6-8.3 2.6-2.1 5.3-3.4 7.8-4.2 2.4-0.9 4.7-1.2 6.5-1.3 1.8-0.1 3.2 0 4.2 0.1q0.7 0.1 1.1 0.1 0.3 0.1 0.3 0.1 0 0-0.3 0-0.4-0.1-1.1-0.1c-1-0.1-2.4-0.2-4.2 0-1.8 0.1-4 0.5-6.4 1.3-2.5 0.9-5.1 2.2-7.6 4.3-2.5 2-4.8 4.8-6.5 8.2-1.7 3.4-2.7 7.4-2.6 11.7 0.1 4.3 1.2 8.7 1.9 13.3 0.4 2.4 0.6 4.8 0.5 7.2-0.2 2.4-0.7 4.9-1.9 7.2-1.1 2.3-3 4-4.5 5.8-1.5 1.9-2.4 4.1-2.8 6.4-0.8 4.6 0 9.1 1.2 13.2 1.2 4.1 2.6 8 3.3 11.8 0.4 1.9 0.6 3.7 0.5 5.5-0.1 1.8-0.6 3.6-1.6 4.9-1.1 1.4-2.6 2.2-4.1 2.4-1.5 0.2-3-0.3-3.9-1.3-0.9-1-1.3-2.2-1.4-3.3-0.2-1.1-0.2-2.2 0-3.1 0.2-0.9 0.7-1.6 1.4-1.9 0.7-0.3 1.3-0.3 1.8-0.1 0.5 0.2 0.7 0.5 0.8 0.7q0.1 0.2 0.1 0.4z"/>
						</g>
					</g>
				</g>
			</g>
			<g id="&lt;Group&gt;">
				<g id="&lt;Group&gt;">
					<path id="&lt;Path&gt;" class="s1" d="m81.9 155.7q19.3 9.7 29 8 12.2-2.2 15.2-7.4l4.9 11.1 35 227.1h-48.1-66.8l24.3-232.7z"/>
				</g>
			</g>
			<g id="&lt;Group&gt;">
				<g id="&lt;Group&gt;">
					<g id="&lt;Group&gt;">
						<path id="&lt;Path&gt;" class="s4" d="m121.9 293.5q-4 90.6-4 101h-98.8q0-14 2.6-33.6 2.3-16.8 23.2-65.1-28.2-122.4-23-129.1 5.2-6.7 39.8-13.4 0.7-6.3 2.2-10.8 1.5-4.4 11.3-6.5l7.9 22.3q26.4 25.9 32.9 58.9z"/>
					</g>
				</g>
				<g id="&lt;Group&gt;" style="opacity: .3">
					<g id="&lt;Group&gt;">
						<g id="&lt;Group&gt;">
							<path id="&lt;Path&gt;" class="s6" d="m75.4 161.8q2-1.2 7.2-3.4c1.6 0.6 1.8 1.3 3 2.5 2.7 2.9 6.1 6.5 8.4 9.8-2.9-1.2-5.8-2.4-8.8-2.9-3.1-0.4-6.4-0.2-9 1.5-2.6 1.6-4.4 4.8-3.8 7.8-2.4-2.3-4.1-5.2-4.9-8.3 2.4-2.9 4.5-4.9 7.9-7z"/>
						</g>
					</g>
				</g>
				<g id="&lt;Group&gt;">
					<g id="&lt;Group&gt;">
						<g id="&lt;Group&gt;">
							<path id="&lt;Path&gt;" class="s0" d="m83.1 158.3c0.1 0.1-2.2 0.5-5.5 2.2-1.7 0.8-3.5 2-5.3 3.6-1.8 1.6-3.6 3.6-5.2 5.9q-0.4 0.7-0.9 1.4l-0.2 0.4-0.2-0.4c-2.8-4.5-3.8-9.3-4.1-12.6-0.1-1.7-0.1-3.1 0-4q0-0.7 0.1-1.1 0.1-0.4 0.1-0.4c0 0 0 0.6 0 1.5 0 0.9 0 2.3 0.2 3.9 0.3 3.4 1.4 8 4.1 12.5h-0.4q0.4-0.7 0.9-1.5c1.6-2.3 3.4-4.4 5.3-6 1.8-1.6 3.7-2.7 5.4-3.5 1.7-0.8 3.1-1.3 4.1-1.6q0.8-0.1 1.2-0.2 0.4-0.1 0.4-0.1z"/>
						</g>
					</g>
				</g>
				<g id="&lt;Group&gt;">
					<g id="&lt;Group&gt;">
						<g id="&lt;Group&gt;">
							<path id="&lt;Path&gt;" class="s0" d="m107.8 240.9q0 0-0.2-0.9-0.1-0.9-0.3-2.4-0.1-0.9-0.3-1.8-0.2-1-0.4-2.2c-0.3-1.5-0.6-3.2-1.1-5.1-1.7-7.6-4.9-18-9.5-28.9-2.3-5.5-4.7-10.7-7-15.3-2.3-4.6-4.6-8.6-6.6-12-2-3.3-3.8-5.9-5-7.7q-1-1.3-1.5-2.1-0.5-0.7-0.5-0.7 0 0 0.6 0.7 0.5 0.7 1.5 2c1.3 1.7 3.1 4.3 5.2 7.6 2 3.4 4.4 7.4 6.7 12 2.4 4.6 4.8 9.8 7.1 15.3 4.6 11 7.7 21.4 9.4 29 0.5 1.9 0.7 3.7 1 5.2q0.2 1.1 0.4 2.1 0.1 1 0.2 1.8 0.1 1.6 0.2 2.5 0.1 0.9 0.1 0.9z"/>
						</g>
					</g>
				</g>
				<g id="&lt;Group&gt;">
					<g id="&lt;Group&gt;">
						<g id="&lt;Group&gt;">
							<path id="&lt;Path&gt;" class="s0" d="m70.6 323.4q0 0-0.3 0.4-0.3 0.4-0.9 1.1c-0.8 0.9-1.9 2.2-3.2 3.8-2.8 3.3-6.5 7.9-10.5 13-4 5.2-7.4 10-9.9 13.5-1.2 1.7-2.1 3.1-2.9 4.2q-0.4 0.6-0.8 1.1-0.2 0.4-0.3 0.4 0-0.1 0.3-0.5 0.2-0.4 0.7-1.1c0.6-1.1 1.5-2.5 2.7-4.3 2.4-3.6 5.8-8.4 9.8-13.6 4-5.2 7.8-9.7 10.6-12.9 1.4-1.6 2.6-2.9 3.4-3.8q0.5-0.6 0.9-1 0.4-0.3 0.4-0.3z"/>
						</g>
					</g>
				</g>
				<g id="&lt;Group&gt;">
					<g id="&lt;Group&gt;">
						<g id="&lt;Group&gt;">
							<path id="&lt;Path&gt;" class="s0" d="m80 332.7q0 0-0.4 0.5-0.3 0.5-0.9 1.2c-0.9 1.1-2.2 2.7-3.8 4.6-3.2 3.8-7.9 8.9-13.3 14.3-5.5 5.4-10.7 10-14.5 13.2l-0.2 0.1-0.1-0.1c-1.7-1.7-3.2-3.1-4.2-4.1q-0.7-0.6-1.1-1.1-0.4-0.4-0.4-0.4 0 0 0.4 0.4 0.5 0.4 1.2 1c1.1 1 2.6 2.3 4.4 3.9h-0.3c3.8-3.2 9-7.9 14.4-13.3 5.5-5.3 10.1-10.4 13.4-14.1 1.6-1.9 2.9-3.4 3.9-4.5q0.6-0.7 1.1-1.2 0.3-0.4 0.4-0.4z"/>
						</g>
					</g>
				</g>
				<g id="&lt;Group&gt;">
					<g id="&lt;Group&gt;">
						<g id="&lt;Group&gt;">
							<path id="&lt;Path&gt;" class="s0" d="m79.5 332.3c-0.1 0.1-2.2-2-4.7-4.7-2.4-2.7-4.4-5-4.2-5.1 0.1-0.1 2.2 2 4.6 4.7 2.5 2.7 4.4 5 4.3 5.1z"/>
						</g>
					</g>
				</g>
				<g id="&lt;Group&gt;" style="opacity: .3">
					<g id="&lt;Group&gt;">
						<g id="&lt;Group&gt;">
							<path id="&lt;Path&gt;" class="s6" d="m116.4 279.9c-2.4 0.9-5.1 0.2-7.7-0.5-4.7 6.3-10.8 11.6-17.7 15.3-4.3 2.3-9.5 4.7-10.4 9.5-0.4 2.1 0.2 4.3 0 6.5-0.5 4.8-4.9 8.2-9.1 10.6-6.3 3.6-13.1 6.6-20.4 6.9-7.2 0.3-12.7 0-17.1-5.7l1.2-2.1c9.5 4.5 19.2 2.6 29.2-2.4 1.8-0.9 8.6-7.2 9.9-8.7q-2.6-5.4-3.2-7.3c-0.6-1.7-1.8-0.3-2.1-2.1-0.5-2.5 1.6-4.7 3.6-6.4 5.9-5.2 12-10.5 18.8-14.7 6.9-4.1 14.6-7 22.6-7 1.9-0.1 4.2 0.3 5.3 1.9 1.4 2.2-0.4 5.3-2.9 6.2z"/>
						</g>
					</g>
				</g>
				<g id="&lt;Group&gt;">
					<g id="&lt;Group&gt;">
						<g id="&lt;Group&gt;">
							<path id="&lt;Path&gt;" class="s0" d="m117.3 234.2q0 0-0.1-0.9-0.1-0.9-0.3-2.4c-0.1-2.2-0.5-5.3-1.1-9.1-0.6-3.8-1.4-8.3-2.8-13.2-0.7-2.5-1.6-5-2.4-7.6q-0.8-1.9-1.6-3.9c-0.5-1.4-1.1-2.7-1.7-4-2.4-5.4-5.2-10.2-8-14.5-1.4-2.1-2.7-4.1-4.1-5.9q-1-1.4-2-2.6-1-1.3-1.9-2.4c-1.2-1.5-2.3-2.8-3.3-3.9q-1.5-1.8-2.7-3-1-1.1-1.6-1.8-0.6-0.7-0.6-0.7 0 0 0.6 0.6 0.7 0.7 1.8 1.8 1.1 1.1 2.7 2.9c1 1.1 2.2 2.4 3.4 3.9q0.9 1.1 1.9 2.3 1 1.3 2 2.6c1.4 1.8 2.8 3.8 4.2 5.9 2.8 4.3 5.6 9.2 8.1 14.6 0.6 1.3 1.2 2.6 1.7 4q0.8 2 1.5 3.9c0.9 2.7 1.8 5.2 2.4 7.7 1.4 4.9 2.2 9.4 2.8 13.2 0.5 3.9 0.8 7 0.9 9.1q0.1 1.6 0.2 2.5 0 0.9 0 0.9z"/>
						</g>
					</g>
				</g>
				<g id="&lt;Group&gt;">
					<g id="&lt;Group&gt;">
						<g id="&lt;Group&gt;">
							<path id="&lt;Path&gt;" class="s0" d="m105.3 394.5q0 0 0-0.3 0-0.4 0.1-0.9 0.1-1.3 0.4-3.5 0.3-2.3 0.6-5.5c0.3-2.1 0.6-4.5 0.8-7.2 0.6-5.4 1.1-11.8 1.6-19 0.5-7.1 0.9-15 1.1-23.2 0.2-8.3 0.2-16.2 0.1-23.3-0.2-7.2-0.4-13.6-0.7-19-0.1-2.7-0.3-5.2-0.4-7.3q-0.2-3.2-0.4-5.5-0.1-2.2-0.2-3.5-0.1-0.6-0.1-0.9 0-0.3 0-0.3 0 0 0.1 0.3 0 0.3 0.1 0.9 0.1 1.2 0.3 3.5 0.2 2.2 0.5 5.5c0.1 2.1 0.3 4.6 0.5 7.3 0.3 5.4 0.6 11.8 0.8 19 0.1 7.1 0.1 15-0.1 23.3-0.2 8.2-0.6 16.1-1.1 23.3-0.5 7.1-1.1 13.5-1.7 18.9-0.3 2.7-0.6 5.1-0.9 7.3q-0.4 3.2-0.7 5.4-0.3 2.2-0.5 3.5-0.1 0.5-0.2 0.9 0 0.3 0 0.3z"/>
						</g>
					</g>
				</g>
			</g>
			<g id="&lt;Group&gt;">
				<g id="&lt;Group&gt;">
					<g id="&lt;Group&gt;">
						<path id="&lt;Path&gt;" class="s4" d="m150.5 150.6q9.8-1.1 20.2 13.1c10.5 14.2 22.8 59.3 23.3 76.1 0.6 16.8 5.1 43.4-6.8 51.2-12 7.8-19.8 7.3-26.2 3.3q-6.3-4.1-9.9-17.5z"/>
					</g>
				</g>
				<g id="&lt;Group&gt;">
					<g id="&lt;Group&gt;">
						<path id="&lt;Path&gt;" class="s4" d="m144 394.5c-10.5-23.9-13.5-41.9-16-71.6-2.4-29.7-8.4-92.4-9.8-93.1-1-0.5-2.9-22.2-3.9-33.7-0.4-4.7 0.4-9.3 2.3-13.6 2.2-5.1 5-11.5 5.3-11.8q0.7-0.7 4.2-14.4l0.5-17.8 10.3 9.5 13.6 2.6 13.1 146.5q17.5 44.6 20.5 59.6 3.1 14.9 1 37.8"/>
					</g>
				</g>
				<g id="&lt;Group&gt;" style="opacity: .3">
					<g id="&lt;Group&gt;">
						<g id="&lt;Group&gt;">
							<path id="&lt;Path&gt;" class="s6" d="m160.1 284.2c-0.6 0.7-1.7 0.6-2.4 0.2-0.8-0.5-1.4-1.1-2.2-1.5-1.3-0.6-2.8-0.3-4.3-0.5-3-0.3-5.5-2.9-8.6-3.2-3.2-0.2-6 2.1-9.2 3-3.4 0.9-6.8 0.5-9.3-2.1l-0.5-4.8c4.2-1.9 7.3-6 11.7-7.6 4.7-1.7 10-0.2 14.1 2.6 4.1 2.9 7.1 7 10.1 11.1 0.6 0.8 1.2 2 0.6 2.8z"/>
						</g>
					</g>
				</g>
				<g id="&lt;Group&gt;">
					<g id="&lt;Group&gt;">
						<g id="&lt;Group&gt;">
							<path id="&lt;Path&gt;" class="s0" d="m137 148q0.1 0 0.3 0.4 0.4 0.4 0.9 1.2c0.7 1 1.7 2.6 2.8 4.7 2.2 4.2 4.7 10.4 5.8 18.2v0.4l-0.4-0.2c-3.7-1.8-8.2-3-13-2.9-2.7 0-5.3 0.4-7.8 1.2l0.2-0.4q1.4 4.1 2.6 7.8l0.1 0.2-0.3 0.1c-3.2 1.3-5.8 3.4-7.6 5.6-1.9 2.1-3.1 4.4-3.8 6.4-0.8 2-1 3.6-1.2 4.7-0.1 1.2-0.1 1.8-0.2 1.8q0 0 0-0.5c0-0.3 0-0.7 0.1-1.3 0.1-1.1 0.3-2.8 1-4.8 0.7-2 1.9-4.4 3.8-6.6 1.8-2.3 4.5-4.4 7.8-5.7l-0.2 0.2q-1.2-3.6-2.6-7.7l-0.1-0.2 0.3-0.1c2.5-0.8 5.2-1.2 7.9-1.3 4.9 0 9.5 1.2 13.2 3.1l-0.3 0.2c-1-7.6-3.5-13.9-5.6-18-1-2.1-2-3.7-2.6-4.8q-0.5-0.8-0.8-1.3-0.3-0.4-0.3-0.4z"/>
						</g>
					</g>
				</g>
				<g id="&lt;Group&gt;">
					<g id="&lt;Group&gt;">
						<g id="&lt;Group&gt;">
							<path id="&lt;Path&gt;" class="s7" d="m128.7 223c-2 0.8-4.7-0.3-5.6-2.3-1-2-0.1-4.7 1.8-5.8l1.2-0.5c2.2-0.5 4.6 0.9 5.3 3.1 0.7 2.1-0.6 4.6-2.7 5.5z"/>
						</g>
					</g>
					<g id="&lt;Group&gt;">
						<g id="&lt;Group&gt;">
							<g id="&lt;Group&gt;">
								<path id="&lt;Path&gt;" class="s0" d="m131.4 217.5q0-0.1 0.1 0.2 0.1 0.3 0.2 0.8c0 0.7-0.1 1.9-0.8 3-0.4 0.5-0.9 1-1.6 1.4-0.7 0.4-1.5 0.6-2.4 0.6-0.9-0.1-1.8-0.4-2.6-1-0.8-0.5-1.4-1.3-1.7-2.3-0.6-2.3 0.5-4.6 2.2-5.5q0.6-0.3 1.2-0.5h0.1c1-0.2 2 0 2.8 0.3 0.7 0.3 1.3 0.8 1.7 1.3 0.4 0.5 0.6 0.9 0.7 1.2q0.1 0.4 0.1 0.5c-0.1 0-0.2-0.7-1-1.5-0.4-0.4-0.9-0.9-1.7-1.2-0.7-0.3-1.6-0.4-2.5-0.2q-0.6 0.2-1.2 0.5c-1.5 0.8-2.5 2.9-1.9 4.9 0.5 1.8 2.3 2.9 3.8 3 1.6 0.1 3-0.8 3.7-1.7 0.7-1 0.9-2.1 0.9-2.8 0-0.7-0.1-1-0.1-1z"/>
							</g>
						</g>
					</g>
				</g>
				<g id="&lt;Group&gt;">
					<g id="&lt;Group&gt;">
						<g id="&lt;Group&gt;">
							<path id="&lt;Path&gt;" class="s7" d="m135.7 295.8c-2.1 0.8-4.7-0.2-5.7-2.2-0.9-2.1-0.1-4.7 1.9-5.8l1.2-0.5c2.1-0.5 4.6 0.9 5.2 3 0.7 2.2-0.5 4.7-2.6 5.5z"/>
						</g>
					</g>
					<g id="&lt;Group&gt;">
						<g id="&lt;Group&gt;">
							<g id="&lt;Group&gt;">
								<path id="&lt;Path&gt;" class="s0" d="m138.3 290.3q0.1 0 0.2 0.3 0.1 0.3 0.1 0.8c0.1 0.7-0.1 1.8-0.8 2.9-0.3 0.6-0.9 1.1-1.5 1.5-0.7 0.4-1.6 0.6-2.5 0.5-0.8 0-1.7-0.3-2.5-0.9-0.8-0.5-1.5-1.4-1.8-2.4-0.6-2.2 0.6-4.5 2.2-5.5h0.1q0.6-0.2 1.2-0.4c1-0.2 2-0.1 2.8 0.3 0.8 0.3 1.3 0.8 1.7 1.3 0.4 0.4 0.6 0.9 0.7 1.2q0.2 0.4 0.1 0.4c0 0.1-0.2-0.6-1-1.5-0.4-0.4-0.9-0.8-1.6-1.1-0.8-0.3-1.7-0.4-2.6-0.2q-0.5 0.2-1.2 0.5h0.1c-1.5 0.8-2.5 2.9-2 4.9 0.5 1.8 2.3 2.8 3.9 3 1.6 0.1 2.9-0.8 3.6-1.8 0.7-1 0.9-2 0.9-2.7 0-0.7-0.1-1.1-0.1-1.1z"/>
							</g>
						</g>
					</g>
				</g>
				<g id="&lt;Group&gt;">
					<g id="&lt;Group&gt;">
						<g id="&lt;Group&gt;">
							<path id="&lt;Path&gt;" class="s7" d="m140.4 345c-2.1 0.8-4.7-0.3-5.7-2.3-0.9-2-0.1-4.7 1.9-5.8l1.1-0.5c2.2-0.5 4.7 0.9 5.3 3.1 0.7 2.1-0.5 4.7-2.6 5.5z"/>
						</g>
					</g>
					<g id="&lt;Group&gt;">
						<g id="&lt;Group&gt;">
							<g id="&lt;Group&gt;">
								<path id="&lt;Path&gt;" class="s0" d="m143 339.5q0.1 0 0.2 0.2 0.1 0.3 0.1 0.9c0.1 0.7-0.1 1.8-0.8 2.9-0.3 0.5-0.9 1.1-1.6 1.4-0.6 0.4-1.5 0.6-2.4 0.6-0.8-0.1-1.8-0.4-2.5-0.9-0.8-0.6-1.5-1.4-1.8-2.4-0.6-2.3 0.6-4.6 2.2-5.5h0.1q0.6-0.3 1.2-0.5c1-0.2 2 0 2.8 0.3 0.8 0.4 1.3 0.9 1.7 1.3 0.4 0.5 0.6 0.9 0.7 1.2q0.2 0.5 0.1 0.5c0 0-0.2-0.7-1-1.5-0.4-0.4-0.9-0.9-1.6-1.1-0.8-0.3-1.7-0.5-2.6-0.3q-0.5 0.3-1.2 0.5h0.1c-1.5 0.8-2.5 3-2 4.9 0.5 1.8 2.3 2.9 3.9 3 1.6 0.1 2.9-0.7 3.6-1.7 0.7-1 0.9-2.1 0.9-2.7 0-0.7-0.1-1.1-0.1-1.1z"/>
							</g>
						</g>
					</g>
				</g>
				<g id="&lt;Group&gt;">
					<g id="&lt;Group&gt;">
						<g id="&lt;Group&gt;">
							<path id="&lt;Path&gt;" class="s0" d="m171.4 227.1c-0.1 0-0.1-0.6-0.2-1.6 0-1-0.1-2.5-0.3-4.4-0.4-3.6-1.4-8.7-3-14-1.6-5.5-3.5-10.2-5-13.6-0.8-1.6-1.4-3-1.8-3.9-0.5-1-0.7-1.5-0.7-1.5 0 0 0.3 0.5 0.8 1.4 0.5 0.9 1.2 2.2 2 3.9 1.6 3.3 3.6 8.1 5.2 13.5 1.6 5.4 2.5 10.5 2.8 14.2 0.2 1.9 0.2 3.4 0.2 4.4 0 1 0 1.6 0 1.6z"/>
						</g>
					</g>
				</g>
				<g id="&lt;Group&gt;" style="opacity: .3">
					<g id="&lt;Group&gt;">
						<g id="&lt;Group&gt;">
							<path id="&lt;Path&gt;" class="s6" d="m128.2 178.5c-0.8-3.2-1.9-4.6-2.6-7.8 4.7-1.1 9.9-2.5 14 0.1 4.1 2.6 6.6 7.9 5.1 12.5q-4.7-1.9-9.4-3.8 0.5 2.7 1 5.5c-9.5-0.1-19.8 7.4-21.5 16.8-0.6-8.5 4.9-21.4 13.4-23.3z"/>
						</g>
					</g>
				</g>
				<g id="&lt;Group&gt;">
					<g id="&lt;Group&gt;">
						<g id="&lt;Group&gt;">
							<path id="&lt;Path&gt;" class="s0" d="m180.1 342.4q-0.1 0-0.3-0.6-0.2-0.6-0.6-1.7c-0.6-1.5-1.3-3.6-2.3-6.2-1.9-5.4-4.4-12.7-7.3-20.7-2.8-8.1-5.5-15.4-7.5-20.6-0.9-2.6-1.7-4.7-2.3-6.2q-0.4-1.1-0.6-1.7-0.2-0.6-0.2-0.6 0 0 0.3 0.5 0.3 0.7 0.7 1.7c0.6 1.4 1.5 3.5 2.5 6.2 2 5.2 4.7 12.4 7.6 20.5 2.9 8.1 5.4 15.4 7.2 20.8 0.8 2.6 1.5 4.7 2.1 6.3q0.3 1 0.5 1.7 0.2 0.6 0.2 0.6z"/>
						</g>
					</g>
				</g>
				<g id="&lt;Group&gt;">
					<g id="&lt;Group&gt;">
						<g id="&lt;Group&gt;">
							<path id="&lt;Path&gt;" class="s0" d="m166.9 394.5q-0.1 0-0.4-0.7-0.4-0.8-1-2.1c-0.9-1.8-2.2-4.5-3.6-7.7-3-6.6-6.8-15.8-10.5-26.2-3.6-10.4-6.3-20-8.1-27-0.9-3.4-1.6-6.3-2-8.2q-0.3-1.5-0.5-2.3-0.1-0.8-0.1-0.8 0 0 0.2 0.8 0.2 0.8 0.6 2.2c0.5 2 1.2 4.8 2.2 8.3 1.8 6.9 4.6 16.5 8.2 26.8 3.7 10.4 7.4 19.6 10.3 26.2 1.4 3.3 2.6 6 3.4 7.8q0.6 1.3 1 2.1 0.3 0.8 0.3 0.8z"/>
						</g>
					</g>
				</g>
			</g>
			<g id="&lt;Group&gt;">
				<g id="&lt;Group&gt;">
					<g id="&lt;Group&gt;">
						<path id="&lt;Path&gt;" class="s4" d="m44 214.8l4.4 55.5q8.2-3.8 9 0.7l16.9 38.3q-6.5 10.4-22 12.9c-15.5 2.6-15.1-2.5-28.1-6.5-13-3.9-8.7-9.3-13-17.6q-4.3-8.3-2.1-19.9l-1.8-21.2q-5.5-31-2.6-55.2 2.9-24.1 17.2-35.1 7.4 2.4 22.1 48.1z"/>
					</g>
				</g>
				<g id="&lt;Group&gt;">
					<g id="&lt;Group&gt;">
						<g id="&lt;Group&gt;">
							<path id="&lt;Path&gt;" class="s0" d="m44 214.8q0.1 0.3 0.1 1 0.1 1 0.3 2.9c0.2 2.5 0.5 6.2 0.9 11 0.8 9.7 1.9 23.5 3.3 40.6l-0.3-0.2c1.5-0.6 3-1.2 4.8-1.5 0.9 0 1.8 0 2.6 0.3 0.9 0.4 1.7 1.1 1.9 2.1v-0.1c5.1 11.6 10.8 24.4 16.9 38.3l0.1 0.1-0.1 0.1c-4.9 6.9-13.2 11.6-22.2 13.1-2.2 0.3-4.5 0.7-6.8 0.7-2.3 0-4.7-0.3-7-1-2.2-0.8-4.3-2-6.4-3q-3.2-1.6-6.5-2.7c-1.9-0.7-3.8-1.2-5.6-2.1-1.8-0.8-3.5-2-4.6-3.6-1.2-1.7-1.7-3.6-2.1-5.5-0.4-1.9-0.8-3.7-1.5-5.4-0.8-1.7-1.7-3.4-2.2-5.2-0.6-1.8-0.9-3.7-1.1-5.5-0.4-3.7-0.3-7.4 0.3-11v0.1q-0.9-11.1-1.8-21.3c-2.2-13.9-3.2-26.9-3.3-38.5 0-5.8 0.2-11.2 0.8-16.2 0.6-5 1.7-9.6 3-13.6 1.4-4 3.1-7.4 4.7-10.2 1.7-2.8 3.3-5.1 4.8-6.9 1.4-1.7 2.6-3 3.5-3.8q0.7-0.6 1-0.8 0.2-0.2 0.4-0.3-0.1 0.1-0.4 0.3-0.3 0.3-0.9 0.9c-0.9 0.8-2.1 2.1-3.5 3.8-1.5 1.8-3.1 4.1-4.7 6.9-1.6 2.8-3.3 6.2-4.6 10.2-1.3 4-2.4 8.5-2.9 13.5-0.6 5-0.8 10.4-0.8 16.2 0.1 11.6 1.2 24.6 3.4 38.4v0.1q0.9 10.2 1.8 21.2v0.1c-0.6 3.5-0.7 7.2-0.3 10.8 0.2 1.8 0.5 3.6 1.1 5.4 0.5 1.8 1.4 3.4 2.1 5.2 0.8 1.7 1.2 3.6 1.6 5.5 0.4 1.9 0.9 3.7 2 5.3 1.1 1.5 2.7 2.6 4.4 3.5 1.8 0.8 3.6 1.3 5.5 2q3.4 1.1 6.6 2.7c2.2 1.1 4.2 2.2 6.4 3 4.4 1.5 9.1 1 13.6 0.3 4.4-0.8 8.7-2.2 12.4-4.4 1.9-1.1 3.6-2.4 5.2-3.8 1.6-1.4 3.1-3 4.2-4.7v0.3c-6.1-13.9-11.8-26.8-16.9-38.3-0.2-0.8-0.8-1.5-1.6-1.8-0.8-0.3-1.6-0.3-2.5-0.2-1.6 0.2-3.2 0.8-4.7 1.4l-0.2 0.1v-0.3c-1.3-17-2.4-30.9-3.1-40.5-0.4-4.8-0.6-8.6-0.8-11.1q-0.2-1.9-0.2-2.9-0.1-0.7-0.1-1z"/>
						</g>
					</g>
				</g>
				<g id="&lt;Group&gt;">
					<g id="&lt;Group&gt;">
						<g id="&lt;Group&gt;">
							<path id="&lt;Path&gt;" class="s0" d="m23.4 291c-0.1 0 0-0.5 0.2-1.3 0.2-0.9 0.6-2.1 1.2-3.6 1.2-2.9 3.6-6.8 7.5-9.8 3.8-3 7.8-4.9 11-5.6 1.5-0.3 2.8-0.5 3.7-0.5 0.9 0 1.4 0.1 1.4 0.1 0 0.1-2 0-5.1 0.8-3 0.7-6.9 2.7-10.7 5.6-3.8 3-6.2 6.7-7.5 9.5-1.3 2.9-1.6 4.8-1.7 4.8z"/>
						</g>
					</g>
				</g>
				<g id="&lt;Group&gt;">
					<g id="&lt;Group&gt;">
						<g id="&lt;Group&gt;">
							<path id="&lt;Path&gt;" class="s0" d="m55.3 317.5q-0.1 0-0.6-0.3-0.5-0.2-1.4-0.8c-1.3-0.8-3-2.1-4.7-4-1.8-1.9-3.6-4.5-5.1-7.6-1.6-3.1-2.9-6.7-4-10.5-1.2-3.7-2.2-7.5-2-11 0.1-1.7 0.6-3.4 1.3-4.7 0.8-1.4 1.8-2.5 2.7-3.4 1.9-1.8 3.7-2.9 4.9-3.7q0.9-0.6 1.4-0.9 0.5-0.3 0.6-0.3 0 0-0.5 0.4-0.5 0.4-1.4 0.9c-1.1 0.9-2.9 2.1-4.7 3.9-0.9 0.9-1.9 2-2.6 3.3-0.7 1.3-1.1 2.9-1.2 4.6-0.2 3.3 0.8 7 2 10.8 1.1 3.8 2.4 7.3 3.9 10.4 1.5 3.1 3.2 5.6 4.9 7.6 1.7 1.9 3.4 3.2 4.6 4 1.2 0.9 1.9 1.2 1.9 1.3z"/>
						</g>
					</g>
				</g>
				<g id="&lt;Group&gt;">
					<g id="&lt;Group&gt;">
						<g id="&lt;Group&gt;">
							<path id="&lt;Path&gt;" class="s0" d="m19.7 182.8c0 0 0.4 0.3 1 0.9 0.7 0.7 1.7 1.6 2.9 2.7 2.5 2.1 6.2 4.9 9.9 8.3 3.7 3.4 6.5 7.2 7.8 10.3 0.7 1.5 1 2.8 1.2 3.7 0.1 0.5 0.1 0.8 0.2 1.1q0 0.3 0 0.3c-0.1 0.1-0.3-2-1.7-5-1.4-2.9-4.2-6.6-7.9-10-3.7-3.4-7.3-6.2-9.7-8.5-1.2-1.1-2.2-2-2.8-2.7-0.7-0.7-1-1.1-0.9-1.1z"/>
						</g>
					</g>
				</g>
				<g id="&lt;Group&gt;" style="opacity: .3">
					<g id="&lt;Group&gt;">
						<g id="&lt;Group&gt;">
							<path id="&lt;Path&gt;" class="s6" d="m51.1 315.5c-2.4 0.6-5.1-0.6-6.7-2.5-1.6-2-2.5-4.4-3.3-6.8-2-5.9-4.7-11.7-3.4-17.7l0.2-0.1c1 4.8 2.6 9 4.4 13.6 1.8 4.6 4.3 9 8.1 12.2 0.4 0.3 0.8 0.8 0.7 1.3z"/>
						</g>
					</g>
				</g>
			</g>
			<g id="&lt;Group&gt;">
				<g id="&lt;Group&gt;">
					<g id="&lt;Group&gt;">
						<path id="&lt;Path&gt;" class="s2" d="m52.1 274.9l51.1-30.1 3.3 30-42.4 33.3q-6.6-9.7-8.8-17-2.2-7.3-3.2-16.2z"/>
					</g>
				</g>
				<g id="&lt;Group&gt;">
					<g id="&lt;Group&gt;">
						<path id="&lt;Path&gt;" class="s8" d="m134.9 245l21-16.9c0.8-0.6 1.7-0.9 2.6-0.9h29.4c1.2 0.1 2.2 1 2.2 2.2 0.1 1.1-0.1 2.5-1 3.2q-1.6 1.3-44.5 36.7l-35.8-2.6z"/>
					</g>
				</g>
				<g id="&lt;Group&gt;">
					<g id="&lt;Group&gt;">
						<g id="&lt;Group&gt;">
							<path id="&lt;Path&gt;" class="s2" d="m103.2 244.8q11.3-9.9 14-10.6 2.8-0.7 15.5-1.7l11.2 5.2-6.2 5q-4.7-0.6-6.2-2.3l-7.3 1.1z"/>
						</g>
					</g>
					<g id="&lt;Group&gt;">
						<g id="&lt;Group&gt;">
							<path id="&lt;Path&gt;" class="s2" d="m116.4 239.8l19.5 5 27.7 1.6q0.6 5.5-5 6.5-3.2 0.7-9 1.5-0.9 5.2-5.1 6.7-1.5 3.7-3.7 5.2-0.4 0.2-0.8 0.4c-2.6 1-7.2 8.5-10.6 9.8q-3.4 1.2-22.9-1.7l-3.3-30z"/>
						</g>
					</g>
					<g id="&lt;Group&gt;">
						<g id="&lt;Group&gt;">
							<g id="&lt;Group&gt;">
								<path id="&lt;Path&gt;" class="s3" d="m123.3 254.9c0-0.1 1.5 0.2 4 0.5 2.4 0.2 5.8 0.5 9.6 0.4 3.8-0.1 7.2-0.4 9.7-0.8 2.4-0.4 3.9-0.7 3.9-0.6 0 0-0.3 0.1-1 0.3-0.7 0.2-1.7 0.4-2.9 0.7-2.4 0.4-5.9 0.9-9.7 0.9-3.8 0.1-7.2-0.2-9.7-0.6-1.2-0.2-2.2-0.4-2.9-0.5-0.7-0.2-1-0.3-1-0.3z"/>
							</g>
						</g>
					</g>
					<g id="&lt;Group&gt;">
						<g id="&lt;Group&gt;">
							<g id="&lt;Group&gt;">
								<path id="&lt;Path&gt;" class="s3" d="m127.6 262.4c0 0 0.1 0.7-0.1 1.9-0.1 0.5-0.3 1.3-0.8 1.9-0.6 0.6-1.5 1-2.4 1-1 0-1.8-0.2-2.5-0.5-0.8-0.3-1.4-0.6-1.9-0.9-1-0.4-1.7-0.6-1.7-0.7 0-0.1 0.8 0 1.9 0.4 1 0.4 2.5 1.2 4.2 1.2 0.8 0 1.5-0.3 2-0.8 0.5-0.6 0.7-1.2 0.9-1.7 0.2-1.1 0.3-1.8 0.4-1.8z"/>
							</g>
						</g>
					</g>
					<g id="&lt;Group&gt;">
						<g id="&lt;Group&gt;">
							<g id="&lt;Group&gt;">
								<path id="&lt;Path&gt;" class="s3" d="m141.8 263.1c0 0-0.8 0.3-2.1 0.7-1.2 0.3-3 0.7-5 1-2 0.3-3.9 0.5-5.2 0.5-1.3 0.1-2.1 0-2.1-0.1 0-0.1 3.2-0.3 7.2-0.9 4-0.6 7.1-1.4 7.2-1.2z"/>
							</g>
						</g>
					</g>
					<g id="&lt;Group&gt;">
						<g id="&lt;Group&gt;">
							<g id="&lt;Group&gt;">
								<path id="&lt;Path&gt;" class="s3" d="m128 272.1c0.1 0.1-1.1 1.2-3 1.7-1.9 0.4-3.5 0-3.4-0.1 0-0.2 1.5 0 3.3-0.4 1.8-0.5 3-1.3 3.1-1.2z"/>
							</g>
						</g>
					</g>
					<g id="&lt;Group&gt;">
						<g id="&lt;Group&gt;">
							<g id="&lt;Group&gt;">
								<path id="&lt;Path&gt;" class="s3" d="m134.8 271.2c0.1 0.2-0.8 0.5-2 0.7-1.1 0.3-2 0.4-2.1 0.2 0-0.1 0.9-0.4 2-0.7 1.2-0.2 2.1-0.3 2.1-0.2z"/>
							</g>
						</g>
					</g>
					<g id="&lt;Group&gt;">
						<g id="&lt;Group&gt;">
							<g id="&lt;Group&gt;">
								<path id="&lt;Path&gt;" class="s3" d="m135.9 244.8c0 0.2-4.1-0.8-9.1-2.3-2.5-0.7-4.8-1.4-6.4-2-1.6-0.6-2.5-1-2.5-1.1 0 0 1 0.3 2.7 0.8 1.8 0.5 3.9 1.1 6.3 1.8 2.4 0.8 4.6 1.4 6.4 1.9 1.6 0.5 2.6 0.8 2.6 0.9z"/>
							</g>
						</g>
					</g>
				</g>
				<g id="&lt;Group&gt;">
					<g id="&lt;Group&gt;">
						<g id="&lt;Group&gt;">
							<path id="&lt;Path&gt;" class="s2" d="m164.4 249.3q-2.2-0.5-0.2-4 2-3.5 8.7 0l8.5 4.1q2.2 4.1 0 5.4l-1.5 2.2q3.5 2.9 2.4 5.9-1 2.9-4.2 2.7 0.9 5.7-0.8 8-1.7 2.4-3.4 2.7-1.1 4.9-6.5 6.7c-5.3 1.9-8.1 2.2-9.8 0q-1.7-2.1-2.9-5-12.2-5.1-12.7-8.2-0.5-3.1 0-3.5-1.1-2.5-0.1-4.5 1-2 5.8-0.7l15.2 2.3q-12.4-4.6-14-6.4c-1.5-1.7-0.2-4 4.6-3.9q4.9 0.2 19.6 1.7-0.9-1.4-1.9-1.7-1-0.3-4.1-1.8z"/>
						</g>
					</g>
					<g id="&lt;Group&gt;">
						<g id="&lt;Group&gt;">
							<g id="&lt;Group&gt;">
								<path id="&lt;Path&gt;" class="s3" d="m169.8 271.6c0 0.2-6.2-0.9-13.8-2.3-7.6-1.4-13.7-2.7-13.7-2.8 0.1-0.2 6.2 0.9 13.8 2.3 7.6 1.4 13.8 2.7 13.7 2.8z"/>
							</g>
						</g>
					</g>
					<g id="&lt;Group&gt;">
						<g id="&lt;Group&gt;">
							<g id="&lt;Group&gt;">
								<path id="&lt;Path&gt;" class="s3" d="m163.4 280.4c0 0.1-2-0.2-4.5-0.8-1.2-0.3-2.3-0.6-3-0.9q-0.6-0.2-0.9-0.4-0.2-0.1-0.3-0.2c0 0 0-0.1 0-0.1 0 0.1 2 0.5 4.4 1.1 2.4 0.6 4.3 1.1 4.3 1.3z"/>
							</g>
						</g>
					</g>
					<g id="&lt;Group&gt;">
						<g id="&lt;Group&gt;">
							<g id="&lt;Group&gt;">
								<path id="&lt;Path&gt;" class="s3" d="m175 264.6c-0.1 0.1-3-0.2-6.7-0.5-3.6-0.3-6.6-0.4-6.6-0.6 0-0.1 3-0.2 6.7 0.1 3.6 0.3 6.6 0.9 6.6 1z"/>
							</g>
						</g>
					</g>
					<g id="&lt;Group&gt;">
						<g id="&lt;Group&gt;">
							<g id="&lt;Group&gt;">
								<path id="&lt;Path&gt;" class="s3" d="m178 256.6c-0.1 0.1-1.4-0.6-3.1-1.1-1.7-0.4-3.1-0.5-3.1-0.6 0-0.1 1.5-0.4 3.3 0.1 1.8 0.5 2.9 1.5 2.9 1.6z"/>
							</g>
						</g>
					</g>
				</g>
				<g id="&lt;Group&gt;">
					<g id="&lt;Group&gt;">
						<g id="&lt;Group&gt;">
							<path id="&lt;Path&gt;" class="s0" d="m188.8 229.8q0 0.1-0.5 0-0.7 0-1.6 0c-1.4-0.1-3.3-0.2-5.8-0.2-4.9-0.2-11.6-0.2-19 0.2-1.9 0.1-3.7 0.1-5.2 1.1-0.7 0.4-1.3 1-2 1.5q-0.9 0.8-1.9 1.6c-2.4 2.1-4.6 3.9-6.5 5.5-1.9 1.5-3.4 2.8-4.5 3.7q-0.7 0.6-1.2 1-0.5 0.3-0.5 0.3 0 0 0.4-0.4 0.5-0.4 1.2-1c1.1-1 2.5-2.3 4.3-3.8 1.9-1.7 4.1-3.5 6.5-5.6q0.9-0.8 1.9-1.6c0.7-0.6 1.3-1.2 2.1-1.7 0.7-0.5 1.7-0.8 2.6-0.9 0.9-0.1 1.8-0.1 2.7-0.2 7.5-0.4 14.2-0.4 19.1-0.1 2.5 0.1 4.4 0.3 5.8 0.4q0.9 0.1 1.6 0.1 0.5 0.1 0.5 0.1z"/>
						</g>
					</g>
				</g>
				<g id="&lt;Group&gt;">
					<g id="&lt;Group&gt;">
						<path id="&lt;Path&gt;" class="s5" d="m170.6 235.6c-0.4 0.4-1 0.6-1.6 0.6-0.3-0.1-0.7-0.1-0.9-0.3-0.4-0.4-0.4-1.1-0.1-1.6 0.3-0.3 0.7-0.6 1.1-0.7q0.1 0 0.1 0 0.1-0.1 0.2-0.1c0.6-0.1 1.2 0.1 1.4 0.4 0.4 0.5 0.2 1.3-0.2 1.7z"/>
					</g>
				</g>
			</g>
		</g>
	</g>
</svg>