<svg version="1.2" xmlns="http://www.w3.org/2000/svg" viewBox="0 0 148 142" width="148" height="142">
	<title>5186395-ai</title>
	<style>
		tspan { white-space:pre } 
		.s0 { fill: #263238 } 
	</style>
	<g id="Plants">
		<path id="&lt;Path&gt;" class="s0" d="m16 68.5c4.1-1.1 7.8 4 9 5.9q0-0.7 0-1.4c0.1-2.3 0.3-4.5 0.5-6.4q0.2-1.6 0.3-2.9 0 0 0 0c-0.1 0.1-1.1-3.6-1.2-3.8-0.4-2.8 0.3-8.4 3.1-9.8 2-1.1 4.3 0 5.1 2.1 0.8 2-0.1 4.6-1.2 6.4-1.1 1.8-4.7 4.4-5.6 5q-0.2 1.4-0.3 3c-0.2 1.9-0.3 4.1-0.3 6.4 0 0.7 0 1.4 0 2 0.2-1.1 0.5-2.6 0.6-2.8 0.9-2.6 4.1-7.3 7.2-7.3 2.3 0 3.8 2.1 3.6 4.3-0.2 2.2-2.2 4-4 5.1-1.9 1.1-6.4 1.7-7.4 1.9q0.1 2.1 0.3 4.5c0.3 2.7 0.8 5.5 1.6 8.3 0.1 0 0.1 0 0.2 0 0.1-1 0.3-3.2 0.3-3.4 0.6-2.8 3.3-7.7 6.4-8.1 2.2-0.2 4 1.7 4 3.8 0 2.2-1.7 4.3-3.4 5.6-1.9 1.5-7.1 2.6-7.3 2.7q1.3 3.9 3.1 7.9c0.8 1.9 1.8 3.8 2.8 5.7 0-0.8 0.3-3.7 0.3-3.9 0.6-2.7 3.3-7.7 6.4-8 2.3-0.3 4 1.6 4 3.8 0 2.2-1.7 4.3-3.4 5.6-1.9 1.4-6.8 2.5-7.2 2.6q0.6 1.3 1.3 2.6c1.5 2.8 3 5.6 4.4 8.4q0.7 1.5 1.3 2.9c0.1-1.1 0.3-3.1 0.3-3.3 0.6-2.7 3.3-7.7 6.4-8 2.3-0.3 4 1.6 4 3.8 0.1 2.2-1.7 4.3-3.4 5.5-1.6 1.3-5.8 2.4-6.9 2.7q1.1 2.4 2 4.9c0.2 0.7 0.5 1.4 0.7 2.1q0.3 1 0.6 2c0.4 1.5 0.8 2.8 1.1 4.1 0.1 0.7 0.3 1.4 0.4 2-0.1-1.1-0.2-2.9-0.2-3.1 0.2-2.8 2.1-8.1 5.1-8.9 2.2-0.6 4.2 1 4.6 3.1q0 0.5 0 0.9c1.3 2.1 2 5.1 2 7-0.1 0.2-0.3 2.3-0.5 3.3q0.5-1.2 1-2.5c0.5-1.2 1-2.6 1.4-3.9q0.4-1 0.7-2c0.2-0.7 0.4-1.4 0.6-2.1 0.3-1.1 0.5-2.1 0.7-3.2-1.3-0.4-5.1-1.8-6.6-3.1-1.6-1.4-3.2-3.6-3-5.8 0.2-2.2 2.1-3.9 4.3-3.5 3.1 0.6 5.4 5.7 5.8 8.5 0 0.1 0 0.7 0 1.4q0.3-1.6 0.5-3.2c0.5-3.1 0.9-6.2 1.2-9.4q0.2-0.9 0.3-1.9c-1.1-0.4-5.3-1.8-6.8-3.2-1.6-1.4-3.2-3.6-3-5.8 0.2-2.1 2-3.9 4.3-3.5 3 0.6 5.4 5.8 5.7 8.5 0 0.1 0.1 0.8 0.1 1.6q0.3-2.5 0.7-5c0.6-3 1.2-5.8 2.1-8.6-0.4-0.1-5.3-1.6-7-3.2-1.6-1.4-3.2-3.6-3-5.8 0.2-2.1 2.1-3.9 4.3-3.5 3.1 0.6 5.4 5.8 5.8 8.5 0 0.2 0 2.8 0 3.7q0 0 0-0.1c1-2.8 2.2-5.4 3.5-7.8 1-1.8 2-3.4 3-4.9-1.6 0-4.6-0.3-6.9-2.6-3.3-3.2-1.8-9.2 3.5-8.7 4 0.4 4.5 6.6 4.5 9.6 1.4-1.9 2.7-3.6 3.9-5.1q1-1.2 1.9-2.2 0 0 0 0c-0.1 0 1-3.6 1.1-3.8 1.2-2.6 4.9-6.9 8-6.5 2.2 0.2 3.5 2.4 3.1 4.5-0.5 2.2-2.6 3.8-4.5 4.7-2 0.9-6.4 1.1-7.5 1.1q-0.9 1.1-1.9 2.3c-1.2 1.6-2.5 3.3-3.8 5.3q-0.1 0.2-0.3 0.4 0 0.2 0 0.4c0.6-0.6 1.2-1.1 1.2-1.2 2.2-1.7 7.5-3.8 10.1-2.1 1.9 1.3 2 3.8 0.6 5.5-1.4 1.7-4 2.2-6.1 2.1-2.2-0.1-6.3-2.1-7.2-2.5q-1.2 1.8-2.2 3.9c-1.3 2.4-2.5 5-3.3 7.9 0.1 0 0.1 0 0.1 0 0.7-0.8 2.1-2.5 2.2-2.6 2-2 7-4.7 9.8-3.2 2 1 2.4 3.5 1.2 5.3-1.2 1.9-3.8 2.7-5.9 2.8-2.4 0.2-7.4-1.7-7.6-1.8q-1.1 4-1.8 8.3c-0.3 2.1-0.5 4.2-0.8 6.3 0.5-0.6 2.3-2.9 2.4-3 2-2 7-4.6 9.8-3.2 2 1 2.4 3.6 1.2 5.4-1.2 1.8-3.8 2.6-5.9 2.7-2.3 0.2-7.1-1.6-7.5-1.7q-0.1 1.4-0.3 2.9c-0.3 3.1-0.6 6.3-1 9.4q-0.2 1.6-0.4 3.2c0.6-0.9 1.9-2.5 2-2.6 2-2 7-4.6 9.8-3.2 2 1 2.4 3.6 1.2 5.4-1.2 1.8-3.8 2.6-5.9 2.7-2.1 0.2-6.1-1.2-7.2-1.6q-0.5 2.6-1.1 5.2c-0.1 0.7-0.3 1.4-0.5 2.1q-0.3 1.1-0.6 2.1c-0.5 1.4-0.9 2.7-1.4 4-0.3 0.7-0.5 1.3-0.7 1.9 0.5-1 1.4-2.6 1.5-2.7 1.7-2.2 6.2-5.6 9.2-4.6 2.1 0.7 2.9 3.1 2 5.1-0.9 2-3.3 3.2-5.4 3.6-2.2 0.5-7.1-0.4-7.6-0.6q-0.9 2.4-1.8 4.5-0.2 0.6-0.5 1.2h-2.1q0.5-0.9 0.9-1.9 0.8-1.9 1.7-4c-0.6-0.3-4.7-2.3-6.3-4-1.8 1-3.9 1.8-4.3 2q0.6 2.4 1 4.7 0.4 1.7 0.7 3.2h-2q-0.2-1.4-0.5-2.9-0.3-2-0.8-4.2c-0.6 0.1-5.5 0.7-7.7 0-2-0.6-4.3-1.9-5.1-4-0.7-2 0.2-4.4 2.4-5 3.1-0.7 7.3 3 8.8 5.3 0.1 0.2 1 2.1 1.5 3.1q-0.3-1.3-0.6-2.7c-0.3-1.3-0.6-2.7-0.9-4q-0.3-1-0.6-2.1c-0.2-0.7-0.4-1.4-0.7-2.1-0.3-1-0.7-2-1.1-3-1.3 0.3-5.2 1.3-7.2 1.1-2.1-0.3-4.7-1.3-5.7-3.2-1.1-1.9-0.5-4.4 1.6-5.3 2.9-1.2 7.7 1.8 9.5 3.9 0.1 0.1 0.4 0.5 0.8 1.1q-0.6-1.5-1.3-2.9c-1.3-2.8-2.7-5.7-4.2-8.5q-0.4-0.9-0.8-1.8c-1.2 0.3-5.4 1.5-7.5 1.2-2-0.3-4.6-1.3-5.6-3.2-1.1-1.9-0.5-4.4 1.6-5.3 2.9-1.2 7.7 1.8 9.5 3.9 0.1 0.1 0.5 0.7 0.9 1.3q-1.1-2.3-2.1-4.6c-1.2-2.8-2.2-5.5-3-8.3-0.4 0.1-5.3 1.6-7.6 1.2-2.1-0.3-4.7-1.2-5.7-3.2-1.1-1.9-0.5-4.4 1.6-5.3 2.9-1.2 7.7 1.8 9.5 4 0.1 0.1 1.6 2.2 2.1 3q0-0.1-0.1-0.1c-0.7-2.9-1.1-5.8-1.4-8.5-0.2-1.9-0.2-3.8-0.2-5.6-1.3 0.2-5.5 0.8-8.8 0-4-0.9-5.1-5.3-0.2-6.6z"/>
		<path id="&lt;Path&gt;" class="s0" d="m86.7 95c2.6-0.7 5 2.6 5.8 3.8q0-0.5 0-0.9c0-1.5 0.2-2.9 0.3-4.1q0.1-1 0.2-1.8 0 0 0 0c-0.1 0-0.7-2.3-0.8-2.5-0.2-1.8 0.2-5.3 2-6.2 1.3-0.7 2.7 0 3.3 1.3 0.5 1.3-0.1 2.9-0.8 4.1-0.7 1.2-3 2.8-3.6 3.2q-0.1 0.9-0.2 1.9c-0.1 1.2-0.2 2.6-0.2 4.1q0 0.6 0 1.3c0.2-0.7 0.4-1.7 0.4-1.8 0.6-1.7 2.6-4.7 4.6-4.7 1.5 0.1 2.4 1.4 2.3 2.7-0.2 1.4-1.4 2.6-2.6 3.3-1.1 0.8-4 1.1-4.7 1.2q0.1 1.4 0.2 2.9c0.2 1.7 0.5 3.5 1.1 5.3 0 0 0 0 0.1 0 0-0.6 0.1-2.1 0.2-2.2 0.3-1.7 2.1-4.9 4-5.1 1.5-0.2 2.6 1 2.6 2.4 0 1.4-1.1 2.8-2.2 3.6-1.2 0.9-4.5 1.7-4.6 1.7q0.8 2.5 1.9 5 0.9 1.8 1.8 3.7c0-0.5 0.2-2.4 0.2-2.5 0.4-1.7 2.1-4.9 4.1-5.1 1.4-0.2 2.6 1 2.6 2.4 0 1.4-1.1 2.7-2.2 3.5-1.2 1-4.4 1.7-4.6 1.8q0.4 0.8 0.8 1.6c1 1.8 1.9 3.6 2.8 5.4q0.5 0.9 0.9 1.8c0-0.7 0.2-2 0.2-2.1 0.4-1.7 2.1-4.9 4.1-5.1 1.4-0.2 2.5 1 2.5 2.4 0 1.4-1.1 2.8-2.1 3.6-1.1 0.8-3.8 1.5-4.5 1.6q0.7 1.6 1.3 3.2c0.1 0.4 0.3 0.9 0.4 1.3q0.2 0.7 0.4 1.3c0.3 0.9 0.5 1.8 0.7 2.6q0.2 0.7 0.3 1.3c0-0.7-0.1-1.9-0.1-2 0.1-1.8 1.3-5.1 3.2-5.7 1.4-0.3 2.7 0.7 2.9 2q0.1 0.3 0.1 0.6c0.8 1.3 1.2 3.3 1.2 4.4 0 0.2-0.2 1.5-0.3 2.2q0.3-0.8 0.6-1.6c0.4-0.8 0.7-1.7 1-2.5q0.2-0.7 0.4-1.3c0.1-0.5 0.2-0.9 0.4-1.4q0.2-1 0.4-2c-0.8-0.3-3.2-1.1-4.2-2-1-0.8-2-2.3-1.9-3.7 0.1-1.3 1.3-2.5 2.7-2.2 2 0.4 3.5 3.7 3.7 5.4 0 0.1 0 0.5 0 0.9q0.2-1 0.4-2c0.3-2 0.5-4 0.7-6q0.1-0.6 0.2-1.2c-0.7-0.3-3.3-1.2-4.3-2.1-1-0.8-2.1-2.3-1.9-3.7 0.1-1.3 1.3-2.4 2.7-2.2 1.9 0.4 3.4 3.7 3.7 5.4 0 0.1 0 0.6 0 1.1q0.2-1.7 0.5-3.3 0.5-2.8 1.3-5.4c-0.2-0.1-3.4-1.1-4.5-2.1-1-0.9-2-2.3-1.9-3.7 0.1-1.3 1.3-2.5 2.7-2.2 2 0.4 3.5 3.7 3.7 5.4 0 0.2 0.1 1.8 0.1 2.4q0-0.1 0-0.1c0.6-1.8 1.4-3.5 2.2-5q0.9-1.7 1.9-3.1c-1 0-2.9-0.2-4.4-1.7-2.1-2-1.1-5.9 2.2-5.5 2.6 0.2 2.9 4.2 2.9 6.1 0.9-1.2 1.8-2.3 2.5-3.2q0.7-0.8 1.2-1.5 0 0 0 0c0 0 0.7-2.3 0.7-2.4 0.8-1.6 3.1-4.4 5.1-4.2 1.5 0.2 2.3 1.6 2 3-0.3 1.3-1.7 2.4-2.9 3-1.2 0.5-4 0.6-4.8 0.6q-0.5 0.7-1.2 1.5c-0.7 1-1.6 2.1-2.4 3.4q-0.1 0.1-0.2 0.2 0 0.2 0 0.3c0.4-0.4 0.7-0.7 0.8-0.8 1.4-1.1 4.8-2.4 6.4-1.3 1.2 0.8 1.3 2.4 0.4 3.5-0.9 1.1-2.6 1.4-3.9 1.3-1.4 0-4-1.3-4.6-1.6q-0.7 1.2-1.4 2.6c-0.8 1.5-1.6 3.2-2.1 5 0.1 0 0 0 0.1 0 0.4-0.5 1.3-1.6 1.4-1.7 1.2-1.3 4.4-3 6.2-2 1.3 0.6 1.6 2.2 0.8 3.4-0.8 1.2-2.4 1.7-3.8 1.8-1.5 0.1-4.7-1.1-4.8-1.2q-0.7 2.6-1.2 5.3-0.3 2-0.5 4c0.3-0.4 1.5-1.8 1.6-1.9 1.2-1.3 4.4-3 6.2-2 1.3 0.6 1.6 2.2 0.8 3.4-0.8 1.2-2.4 1.7-3.8 1.8-1.5 0.1-4.5-1.1-4.8-1.2q-0.1 1-0.2 1.9c-0.2 2-0.3 4-0.6 6q-0.1 1-0.3 2c0.4-0.5 1.3-1.5 1.3-1.6 1.3-1.3 4.5-3 6.3-2.1 1.2 0.7 1.5 2.3 0.8 3.5-0.8 1.2-2.5 1.7-3.8 1.7-1.4 0.1-3.9-0.8-4.7-1q-0.2 1.7-0.6 3.3c-0.1 0.5-0.2 0.9-0.4 1.4q-0.2 0.6-0.4 1.3c-0.3 0.9-0.5 1.7-0.8 2.6q-0.3 0.6-0.5 1.2c0.4-0.7 0.9-1.7 1-1.7 1.1-1.5 4-3.6 5.8-3 1.4 0.5 1.9 2 1.4 3.3-0.6 1.3-2.2 2-3.5 2.3-1.4 0.3-4.5-0.3-4.9-0.4q-0.6 1.5-1.1 2.8-0.2 0.5-0.3 0.8h-1.4q0.3-0.6 0.6-1.2 0.5-1.2 1.1-2.5c-0.4-0.2-3-1.5-4-2.6-1.2 0.6-2.5 1.2-2.8 1.3q0.4 1.5 0.7 2.9 0.2 1.1 0.4 2.1h-1.3q-0.1-0.9-0.3-1.8-0.2-1.3-0.5-2.7c-0.4 0-3.5 0.4-4.9 0-1.3-0.4-2.8-1.3-3.3-2.6-0.5-1.3 0.2-2.8 1.6-3.1 1.9-0.5 4.6 1.8 5.6 3.3 0 0.1 0.6 1.4 0.9 2q-0.1-0.8-0.3-1.7c-0.2-0.8-0.4-1.7-0.6-2.6q-0.2-0.6-0.4-1.3c-0.1-0.5-0.3-0.9-0.4-1.3q-0.4-1-0.8-2c-0.8 0.2-3.3 0.9-4.6 0.7-1.3-0.2-2.9-0.8-3.6-2-0.7-1.3-0.3-2.8 1-3.4 1.9-0.8 4.9 1.1 6.1 2.5 0 0 0.3 0.3 0.5 0.7q-0.4-0.9-0.8-1.9c-0.9-1.8-1.8-3.6-2.7-5.4q-0.3-0.5-0.5-1.1c-0.8 0.2-3.4 0.9-4.8 0.7-1.3-0.2-2.9-0.8-3.6-2-0.7-1.2-0.3-2.8 1-3.4 1.9-0.8 4.9 1.1 6.1 2.5 0 0 0.3 0.4 0.6 0.8q-0.7-1.4-1.4-2.9-1.1-2.7-1.9-5.3c-0.2 0.1-3.4 1-4.9 0.8-1.3-0.2-2.9-0.8-3.6-2.1-0.7-1.2-0.3-2.8 1.1-3.3 1.8-0.8 4.9 1.1 6 2.5 0.1 0.1 1 1.4 1.3 1.9q0 0 0-0.1c-0.5-1.8-0.7-3.6-0.9-5.4q-0.1-1.9-0.1-3.6c-0.8 0.2-3.5 0.5-5.7 0-2.5-0.6-3.2-3.4-0.1-4.2z"/>
		<path id="&lt;Path&gt;" class="s0" d="m73.9 75.5q-0.2 0.1-0.3 0.2 0.1-0.1 0.2-0.2 0 0 0.1 0z"/>
	</g>
</svg>