<svg version="1.2" xmlns="http://www.w3.org/2000/svg" viewBox="0 0 500 500" width="500" height="500">
	<title>5186395-ai</title>
	<style>
		.s0 { fill: #ffffff;stroke: #263238 } 
		.s1 { fill: #92e3a9;stroke: #263238 } 
		.s2 { fill: #263238;stroke: #263238 } 
		.s3 { fill: #808080;stroke: #263238 } 
		.s4 { fill: none;stroke: #263238 } 
		.s5 { fill: #263238 } 
		.s6 { fill: none;stroke: #787878 } 
	</style>
	<g id="Character">
		<g id="&lt;Group&gt;">
			<path id="&lt;Path&gt;" class="s0" d="m343.2 475.9q-6 1.2-13.9-0.2-7.9-1.4-16.2-8.1l-6.7 0.5v-29.2q11.6-2.1 15.3-1.9 3.7 0.3 21.5 17.9z"/>
			<g id="&lt;Group&gt;">
				<path id="&lt;Path&gt;" class="s1" d="m313 479h-21.5l-3.6-42.6h28.7z"/>
				<path id="&lt;Path&gt;" class="s0" d="m315.9 431.6h-26.7v-2.3h26.7z"/>
				<path id="&lt;Path&gt;" class="s0" d="m317.5 439.5h-30.6v-8.3h30.6z"/>
			</g>
			<path id="&lt;Path&gt;" class="s0" d="m330.7 469.2q-10.7-1.1-11.8-12.7-8.1 5.5-11.6 5.5c-3.5 0-4.4-2.5-5.1-4.3q-0.7-1.8 15.5-12.3 3-3 5.6-3c2.5 0 13.4 14.8 15.5 17.3"/>
			<path id="&lt;Path&gt;" class="s2" d="m461.5 500l-1.7-70.5 4.2-24.6 0.9 95.1z"/>
			<g id="&lt;Group&gt;">
				<path id="&lt;Path&gt;" class="s3" d="m341.5 500c-0.3-7.2-1.5-38.5 0.4-54 2.1-17.6 6.8-50.6 9.6-58 2.7-7.5 5.5-20.1 9.8-26.3 4.4-6.2 9.3-12 15.2-20 5.8-8.1 10.8-22.9 11.7-24.4 0.9-1.6 5.2-6.2 13.3-7.1 8-1 18.5-0.3 27.4 2.8 9 3 32.7 18.2 35.2 24.6l3.8 13.4q-3.6 29.2 0.4 37.9c4.1 8.6-0.3 27.5-0.9 35.2q-0.6 7.7-8.7 24.2l-0.5 51.7z"/>
				<path id="&lt;Path&gt;" class="s4" d="m423.1 310.2q-0.3 2.4-6.5 14.2-6.2 11.7-8.4 18.5l-9.8-4.6 1.8 10.8q-6.8 4.9-16.3 10.5c-3.8 2.1-7.4 5.3-10.5 8.3"/>
				<path id="&lt;Path&gt;" class="s4" d="m365.4 377.1q2.6-3.4 6.4-7.5"/>
			</g>
			<path id="&lt;Path&gt;" class="s2" d="m411.8 368.4l-12.7 131.5h-5.1l14.5-135.8z"/>
			<path id="&lt;Path&gt;" class="s0" d="m347.1 500c0.1-13.3 0.4-70.6 2.8-88.6 2.8-20.4 16.1-50.9 20.4-56.5 4.3-5.5 18.5-28.4 20.7-36.4q2.1-8-1-21.9 3.1-1.2 13-17.9l11.1 29.9q-4 10.2-12 17.9c-8.1 7.7-23.2 21-30.6 31.5-7.4 10.5-11.7 35.5-16.7 57.7-4.3 19.5-3.4 71.7-3.1 84.3z"/>
			<path id="&lt;Path&gt;" class="s2" d="m401.2 289.7l5.3 11.6-15.6 0.3z"/>
			<path id="&lt;Path&gt;" class="s1" d="m347.1 500c0.1-13.3 0.4-70.6 2.8-88.6 2.8-20.4 16.1-50.9 20.4-56.5 3.6-4.6 14-21.2 18.7-31.3 4.1 0.8 11.1 0.6 19.9-5.4-1.8 2.7-4.1 5.7-6.8 8.3-8.1 7.7-23.2 21-30.6 31.5-7.4 10.5-11.7 35.5-16.7 57.7-4.3 19.5-3.4 71.7-3.1 84.3z"/>
			<path id="&lt;Path&gt;" class="s2" d="m390.2 299.4q3.1 11.5 2.7 16.5c-0.3 5.1-4.7 19.6-10.1 27.4-5.4 7.7-14.2 19.5-21.2 22.6q-7.1 3-9.8 3 13.8-5.7 16.5-22.6c2.7-16.9-6.1-57.7-6.4-60.4q-0.3-2.7 28.3 13.5z"/>
			<g id="&lt;Group&gt;">
				<path id="&lt;Path&gt;" class="s0" d="m352.4 242.4q9.4-2.7 19.7-2c10.4 0.6 29.1 13.3 30.4 21 1.3 7.7-0.3 25.3-3.3 30.4-3 5-15.7 18-17.4 18.6-1.7 0.7-5-3-7.3-5.3q-2.4-2.3-11.4-12.7-6 0-7.7-2.3c-1.6-2.4 1.7-9.7 1.7-13.7 0-4-3.7-5.7-5-8q-1.3-2.3-0.7-15.7z"/>
				<path id="&lt;Path&gt;" class="s4" d="m373 268.5l-7.8 4.8-2.1-5.6"/>
				<path id="&lt;Path&gt;" class="s4" d="m359.4 265.5q-2.2-7.9 9.5-5.8"/>
				<path id="&lt;Path&gt;" class="s4" d="m367.5 293.8q5.6-1.7 10-8.7"/>
				<path id="&lt;Path&gt;" class="s5" d="m369.1 272c0.3 0.6-0.2 1.5-1.1 2-0.8 0.5-1.8 0.4-2.1-0.3-0.4-0.6 0.1-1.4 1-1.9 0.9-0.5 1.8-0.4 2.2 0.2z"/>
			</g>
			<g id="&lt;Group&gt;">
				<path id="&lt;Path&gt;" class="s2" d="m392.5 207c16.7 1.3 33.7 19 40.7 31 7 12 4.6 16.2 25.4 52.1q28.5 49.5 8.4 70.3-1.3-14.8-4.7-19.5c-3.3-4.7-8.7-5.1-21.1-10.4-12.3-5.4-30.7-13.1-37-21.4q-6.4-8.3-8-44-4.7 0-6-1-1.4-1-5.1-5 0 0-10.6-4.1-10.7-4-22.1-9.6l-1 7.3q-11-7-12.6-11.7-1.7-4.6 20-18.7 17-16.6 33.7-15.3z"/>
				<path id="&lt;Path&gt;" class="s6" d="m438.4 307.2q3.4 1.8 7.1 3.2"/>
				<path id="&lt;Path&gt;" class="s6" d="m386.3 220.2q16.4 12.4 19.2 35c2.2 17.8 9.7 35.6 25.6 47.3"/>
				<path id="&lt;Path&gt;" class="s6" d="m376.9 237.7c4.6 1.5 9 3.3 12.3 5.1"/>
				<path id="&lt;Path&gt;" class="s6" d="m347.4 242.2q-5.6-2.2 0.6-6.8c3.7-2.6 13.5-1.7 23.2 0.7"/>
				<path id="&lt;Path&gt;" class="s6" d="m396.2 262.1q-2.7-22.4-9.1-31.1"/>
			</g>
			<g id="&lt;Group&gt;">
				<g id="&lt;Group&gt;">
					<path id="&lt;Path&gt;" class="s2" d="m281.4 410.8l-23.9-18.3c-0.9-0.6-0.5-2 0.6-2.2l12.5-1.7c1.8-0.2 3.5 0.3 4.9 1.4l24.4 19.3z"/>
					<g id="&lt;Group&gt;">
						<g id="&lt;Group&gt;">
							<path id="&lt;Path&gt;" class="s0" d="m324.9 434.9q-9.9 1.5-16 0.3c-6.2-1.3-12.1-2.5-14.9-5.3-1.8-1.8-4-5.9-5.3-8.6-0.7-1.6-1.1-3.3-1.1-5q-9-2.4-10.2-4.6c-1.3-2.1 0-4.6 1.5-4.3q1.6 0.3 20.7-0.9 0-4 1.2-5.6c1.3-1.5 9 0.3 12.4-0.3 3.4-0.6 7.4 0.9 9.2 3.7q1.9 2.8 7.4 7.7z"/>
							<path id="&lt;Path&gt;" class="s4" d="m299.6 406.5l14.5-1"/>
						</g>
						<path id="&lt;Path&gt;" class="s4" d="m287.6 416.3q6.1-0.4 10.1 0.3c4.1 0.7 7.5 1.4 9.9 0.7"/>
						<path id="&lt;Path&gt;" class="s4" d="m308.9 425.8c-4.4 1.3-8.8-1.4-11.5-2.4q-2.7-1-8.7-2.1"/>
						<path id="&lt;Path&gt;" class="s4" d="m293 428.1q7.5 3.4 13.2 3.1"/>
					</g>
				</g>
				<g id="&lt;Group&gt;">
					<path id="&lt;Path&gt;" class="s3" d="m460.7 351.5q1.3 14.5 1.3 25c0 10.5-1.3 31.8-8.4 46.3-7.1 14.5-5.2 24.7-12.3 39.2-7.1 14.5-12.1 14.9-32.4 13-20.4-1.9-43.6-9.6-44.8-9.6-1.2 0-19.4-3.4-28.1-7.7q-8.6-4.3-17-10.2 0.4-3.7 1.9-7.4 1.5-3.7 6.5-30.5 9.2 5.5 17.9 8.3 8.6 2.8 16.6 4 5.9-3.7 7.8-4.3c1.8-0.6 5.5 3.7 10.8 4.9 5.2 1.3 13.2 2.5 14.5 2.5 1.2 0 13.8-1.5 12.9-1.2-1.1 0.3-2.1-2.1-1.8-4.1 0.2-1 3.1-8 4-9.2 0.9-1.2 0.9-5.9 0.9-9 0-3-4.3-35.5-2.1-44.4q2.1-9 15.1-27.5 0.6-2.8 7.4-2.8c6.8 0.1 17.9 7.4 22.5 11.5"/>
					<path id="&lt;Path&gt;" class="s4" d="m432.8 362.4q5.3-2 11.9 0.6c3.2 1.3 6.2 3.8 8.5 6.1"/>
					<path id="&lt;Path&gt;" class="s4" d="m457.3 373.6q-0.9-1.2-2.4-2.8"/>
					<circle id="&lt;Path&gt;" class="s4" cx="325.1" cy="444.2" r="1.8"/>
					<path id="&lt;Path&gt;" class="s4" d="m420.8 435.8c1.6 1.6 3 2.9 3.8 3.4"/>
					<path id="&lt;Path&gt;" class="s4" d="m408.6 422.2q5.4 6.4 10.1 11.4"/>
					<path id="&lt;Path&gt;" class="s4" d="m388 439.2c1.2 1.7 2.3 3.2 3.3 4.3"/>
					<path id="&lt;Path&gt;" class="s4" d="m378.3 423.1q4 7.2 7.9 13.4"/>
					<path id="&lt;Path&gt;" class="s4" d="m337.6 441.1c-1.3 5.9-2.7 11.3-4.1 13.5"/>
					<path id="&lt;Path&gt;" class="s4" d="m341.6 418.2q-1.3 8.7-3 17.8"/>
				</g>
			</g>
		</g>
	</g>
</svg>